<svg xmlns="http://www.w3.org/2000/svg" id="Layer_2" data-name="Layer 2" viewBox="0 0 1126.75 1151.77"><defs><style>      .cls-1 {        fill: #231f20;      }    </style></defs><g id="Layer_1-2" data-name="Layer 1"><g><g><path class="cls-1" d="m563.38,1151.77c-74.27,0-147.25-16.02-216.92-47.61-66.54-30.18-126.87-73.01-179.31-127.29C60.93,866.89,0,720.74,0,575.88c0-144.26,61.08-290.24,167.58-400.51,52.53-54.38,112.87-97.31,179.35-127.58C416.57,16.08,489.4,0,563.36,0h.02c153.28,0,295.9,60.42,401.6,170.11,104.33,108.26,161.78,252.37,161.78,405.78,0,157.4-56.96,306.11-156.29,407.99-51.05,52.37-115.65,95.38-186.79,124.38-69.83,28.46-146.01,43.51-220.3,43.51Zm-.02-1144.39c-72.9,0-144.69,15.86-213.37,47.13-65.64,29.89-125.22,72.28-177.1,126C67.71,289.41,7.38,433.52,7.38,575.88c0,142.95,60.17,287.24,165.08,395.85,51.79,53.62,111.36,95.91,177.05,125.7,68.7,31.16,140.66,46.96,213.87,46.95v3.69-3.69c150.48,0,300.69-61.93,401.8-165.66,97.99-100.52,154.19-247.35,154.19-402.84,0-151.49-56.72-293.77-159.71-400.66C855.36,67,714.63,7.39,563.38,7.38h-.02Z"></path><path class="cls-1" d="m568.4,1104.51c-67.5,0-134.23-15.22-198.35-45.24-60.72-28.43-116.07-68.58-164.5-119.35-97.77-102.47-153.84-235-153.83-363.61,0-127.95,56.33-260.31,154.52-363.13,48.56-50.85,103.93-91.1,164.57-119.63,64.07-30.15,130.57-45.43,197.64-45.44,140.33,0,271.16,55.72,368.36,156.9,46.71,48.61,83.34,105.19,108.89,168.16,26.21,64.59,39.49,132.93,39.49,203.14h-3.69,3.69c0,140.5-52.47,272.53-147.72,371.75-96.83,100.87-227.89,156.43-369.03,156.45h-.04Zm.04-1049.02c-65.97,0-131.41,15.05-194.49,44.73-58.98,27.75-115.12,68.57-162.37,118.05-96.89,101.47-152.46,231.97-152.47,358.04,0,126.73,55.32,257.4,151.79,358.51,47.8,50.1,102.4,89.72,162.29,117.76,63.13,29.56,128.82,44.54,195.22,44.55h.04c139.11-.01,268.28-54.77,363.7-154.17,93.92-97.84,145.66-228.05,145.66-366.64,0-69.25-13.1-136.66-38.95-200.36-25.2-62.1-61.32-117.89-107.38-165.82-95.8-99.72-224.73-154.64-363.04-154.63Z"></path><path class="cls-1" d="m582.52,1057.89c-.46,0-.9,0-1.36,0-60.9-.17-121.34-14.25-179.63-41.83-54.36-25.73-106.14-63.46-149.73-109.12-89.43-93.68-140.71-213.8-140.7-329.56,0-115.31,51.35-235.27,140.85-329.12,43.63-45.75,95.4-83.57,149.73-109.37,58.3-27.69,118.69-41.83,179.48-42.02.5,0,1,0,1.5,0,122.69,0,238.31,47.94,325.73,135.09,44.84,44.7,80.1,97.23,104.81,156.13,25.28,60.27,38.1,123.96,38.09,189.3,0,65.56-12.8,129.35-38.01,189.6-24.64,58.87-59.82,111.34-104.57,155.96-87.31,87.05-203.12,134.95-326.2,134.95Zm.13-953.66c-.5,0-.97,0-1.47,0-115.82.37-233.88,54.72-323.89,149.11-88.2,92.49-138.8,210.59-138.81,324.03-.01,113.88,50.53,232.14,138.66,324.46,89.88,94.15,207.98,148.34,324.04,148.67.45,0,.89,0,1.34,0,121.12,0,235.06-47.13,320.99-132.8,44.06-43.93,78.71-95.61,102.97-153.58,24.83-59.34,37.43-122.18,37.43-186.75.01-127.02-51.28-251.02-140.74-340.21-86.02-85.75-199.8-132.93-320.52-132.93Z"></path><path class="cls-1" d="m599.88,1011.79c-106.06,0-214.1-49.52-296.43-135.88-80.63-84.58-126.87-192.81-126.86-296.95,0-103.81,46.28-211.92,126.95-296.62,82.45-86.57,190.49-136.22,296.43-136.22h.06c113.58.02,220.45,46.28,300.93,130.27,38.45,40.13,68.67,86.55,89.83,137.98,21.72,52.79,32.73,108.17,32.73,164.59h0c0,56.63-11.02,112.13-32.73,164.95-21.14,51.45-51.35,97.85-89.79,137.92-80.35,83.76-187.23,129.91-300.96,129.96h-.14Zm.08-858.29c-103.93,0-210.01,48.81-291.08,133.93-79.37,83.34-124.9,189.6-124.91,291.53,0,102.26,45.49,208.64,124.82,291.86,80.94,84.9,187.04,133.59,291.09,133.59h.13c111.7-.05,216.7-45.39,295.64-127.69,37.8-39.4,67.5-85.03,88.29-135.62,21.34-51.93,32.17-106.48,32.17-162.14h3.69-3.69c0-55.45-10.82-109.88-32.17-161.78-20.81-50.57-50.53-96.22-88.34-135.68-79.07-82.52-184.05-127.98-295.6-128h-.06Z"></path><path class="cls-1" d="m621.49,966.07c-92.14,0-182.41-39.34-254.42-110.91-36.69-36.47-67.06-80.37-87.83-126.95-21.32-47.82-32.59-98.75-32.59-147.29,0-48.43,11.3-99.3,32.67-147.12,20.82-46.59,51.24-90.52,87.97-127.03,72.06-71.63,162.3-111.01,254.25-111.01.65,0,1.28,0,1.92,0,101.2.6,196.24,41.75,267.62,115.85,70.43,73.11,109.21,168.76,109.2,269.31,0,100.81-38.77,196.53-109.14,269.53-71.28,73.94-166.35,115-267.69,115.62h0c-.66,0-1.32,0-1.97,0Zm.05-762.93c-90,0-178.37,38.61-249.05,108.86-74.17,73.72-118.45,174.25-118.46,268.92,0,47.51,11.04,97.41,31.95,144.29,20.4,45.76,50.25,88.89,86.3,124.72,70.61,70.19,159.04,108.76,249.21,108.76.64,0,1.28,0,1.93,0,99.33-.61,192.53-40.86,262.42-113.36,69.04-71.61,107.06-165.52,107.07-264.41,0-98.63-38.04-192.46-107.14-264.19-69.99-72.66-163.16-113-262.35-113.59-.62,0-1.26,0-1.87,0Z"></path><path class="cls-1" d="m649.89,920.59c-86.43,0-169.15-36.64-232.93-103.18-61.78-64.45-97.22-149.85-97.21-234.29,0-84.25,35.51-169.6,97.42-234.16,63.88-66.62,146.54-103.32,232.73-103.32,0,0,0,0,0,0,88.68,0,171.97,35.76,234.51,100.69,61.71,64.06,95.69,148.15,95.69,236.78h-3.69,3.69c0,88.88-33.89,173.03-95.43,236.95-62.41,64.82-145.78,100.52-234.77,100.52Zm0-667.56c-84.16,0-164.92,35.88-227.4,101.04-60.6,63.2-95.36,146.68-95.36,229.05,0,82.55,34.68,166.09,95.16,229.18,62.38,65.07,143.21,100.91,227.6,100.9,86.97,0,168.45-34.9,229.45-98.26,60.21-62.53,93.37-144.87,93.37-231.83,0-86.71-33.25-168.98-93.62-231.66-61.14-63.47-142.54-98.43-229.2-98.43Z"></path><path class="cls-1" d="m677.83,875.25v-3.69,3.69c-75.07,0-146.25-30.9-200.43-87.01-52.8-54.68-83.08-128.59-83.08-202.78s30.3-148.01,83.13-202.73c54.21-56.14,125.38-87.06,200.37-87.06h0c75.8,0,147.2,30.73,201.05,86.53,53.21,55.13,82.51,127.32,82.51,203.26s-29.29,148.21-82.46,203.31c-53.81,55.76-125.23,86.47-201.1,86.47Zm0-572.19c-72.98,0-142.26,30.12-195.07,84.81-51.52,53.35-81.06,125.37-81.06,197.6s29.53,144.34,81.01,197.65c52.78,54.66,122.07,84.75,195.12,84.75,73.84,0,143.38-29.91,195.79-84.22,51.84-53.71,80.39-124.1,80.39-198.19s-28.57-144.38-80.44-198.13c-52.44-54.34-121.96-84.27-195.73-84.27Z"></path><path class="cls-1" d="m707.02,829.9c-.45,0-.89,0-1.34,0-62.19-.39-121.51-26.54-167.02-73.65-44.38-45.93-69.83-107.33-69.83-168.45,0-61.11,25.47-122.51,69.88-168.46,45.53-47.1,104.83-73.26,166.97-73.65.45,0,.9,0,1.34,0,59.19,0,116.4,24.49,161.24,69.05,47.25,46.96,74.35,110.04,74.35,173.06h-3.69,3.69c0,63.06-27.09,126.15-74.33,173.09-44.81,44.54-102.05,69.01-161.28,69.01Zm0-476.83c-.43,0-.87,0-1.3,0-60.14.38-117.56,25.73-161.7,71.4-43.09,44.58-67.81,104.11-67.81,163.33,0,59.23,24.69,118.76,67.75,163.32,44.12,45.67,101.57,71.02,161.76,71.4.43,0,.86,0,1.29,0,57.27,0,112.65-23.71,156.07-66.87,45.85-45.56,72.14-106.74,72.15-167.86,0-61.07-26.3-122.24-72.17-167.82-43.44-43.18-98.81-66.9-156.04-66.9Z"></path><path class="cls-1" d="m729.92,784.42c-47.9,0-93.62-19.15-128.94-54.06-37.66-37.22-59.25-88.39-59.25-140.37,0-51.97,21.6-103.12,59.25-140.34,35.85-35.43,82.34-54.65,131.03-54.08,101.34,1.17,190.23,92.02,190.22,194.42,0,102.38-88.9,193.23-190.22,194.42h0c-.7,0-1.4.01-2.1.01Zm.03-381.49c-45.94,0-89.82,18.41-123.77,51.96-36.26,35.84-57.06,85.08-57.06,135.09,0,50.03,20.79,99.28,57.06,135.12,34.42,34.02,79.14,52.4,125.76,51.92h0c97.44-1.13,182.92-88.54,182.93-187.04,0-98.51-85.47-185.92-182.93-187.04-.66,0-1.32-.01-1.98-.01Z"></path><path class="cls-1" d="m755.03,738.66c-38.19,0-74.31-15.71-101.71-44.23-26.58-27.67-41.82-65.04-41.82-102.51,0-37.55,15.2-74.93,41.68-102.54,27.34-28.5,63.52-44.2,101.88-44.2h.04c37.36.01,73.36,16.3,101.37,45.88,26.85,28.35,42.25,65.11,42.25,100.87h0s0,0,0,0c-.01,76.76-68.47,146.7-143.62,146.74h-.08Zm.04-286.1c-36.33,0-70.62,14.89-96.55,41.93-25.18,26.25-39.63,61.76-39.63,97.43,0,35.58,14.49,71.08,39.76,97.39,25.99,27.06,60.22,41.96,96.39,41.96h.07c34.67-.02,69.62-15.91,95.88-43.61,25.64-27.04,40.35-61.93,40.36-95.75h0c.01-72.91-64.92-139.34-136.24-139.36h-.04Z"></path><path class="cls-1" d="m771.52,692.54c-23.69,0-46.39-9.47-64.13-26.79-19.6-19.14-30.84-45.49-30.83-72.28,0-26.78,11.24-53.12,30.83-72.26,18.27-17.85,41.79-27.37,66.22-26.8,51.62,1.21,96.9,47.49,96.89,99.06,0,51.55-45.29,97.84-96.89,99.05h0c-.7.02-1.4.03-2.09.03Zm.02-190.78c-21.75,0-42.63,8.73-58.99,24.72-18.18,17.76-28.61,42.17-28.61,66.98s10.43,49.24,28.61,67c16.83,16.44,38.41,25.17,60.89,24.67h0c47.77-1.12,89.67-43.96,89.68-91.67,0-47.72-41.9-90.56-89.68-91.68-.63-.02-1.27-.02-1.9-.02Z"></path><path class="cls-1" d="m783.89,645.9c-11.64,0-22.87-4.64-31.84-13.21-10.43-9.97-16.66-24.25-16.66-38.21,0-14.01,6.21-28.3,16.61-38.25,9.45-9.03,21.46-13.69,33.89-13.12,27.2,1.24,50.17,24.77,50.16,51.37,0,26.6-22.98,50.13-50.16,51.37-.67.03-1.33.05-2,.05Zm-.02-95.45c-9.78,0-19.23,3.91-26.77,11.13-8.98,8.58-14.33,20.88-14.33,32.91,0,11.98,5.38,24.27,14.38,32.87,8,7.65,18.09,11.6,28.4,11.13,22.96-1.05,43.11-21.61,43.12-44h0c0-22.78-19.74-42.93-43.12-43.99-.56-.03-1.12-.04-1.67-.04Z"></path></g><g><path class="cls-1" d="m567.06,1148.3l-7.37-.45c6.38-104.19,61.03-191.64,113.88-276.21,53.1-84.96,108.01-172.81,112.87-276.97l7.38.34c-4.95,106.09-60.38,194.77-113.98,280.54-52.36,83.78-106.51,170.42-112.78,272.74Z"></path><path class="cls-1" d="m754.12,1114.52c-18.74-96.14-2.38-185.93,16.1-261.08l.95-3.87c21.11-85.79,41.05-166.83,15.42-253.68l7.08-2.09c26.2,88.77,6.03,170.74-15.33,257.53l-.95,3.87c-32.59,132.53-26.39,204.74-16.03,257.9l-7.25,1.41Z"></path><path class="cls-1" d="m928.26,1016.78c-39.42-66.63-62.71-133.86-73.31-211.59-9.96-73.04-19.36-142.03-67.8-208.16l5.96-4.36c49.54,67.64,59.07,137.53,69.16,211.53,10.46,76.72,33.45,143.08,72.35,208.83l-6.36,3.76Z"></path><path class="cls-1" d="m1051.98,865.47c-57.42-41.89-100.07-84.73-134.23-134.83-35.88-52.63-71.66-95.33-129.62-132.68l4-6.21c59.01,38.03,95.34,81.36,131.72,134.73,33.67,49.38,75.77,91.66,132.48,133.03l-4.35,5.97Z"></path><path class="cls-1" d="m1114.54,678.92c-53.94-10.61-107.47-25.35-159.25-39.6-53.94-14.85-109.71-30.2-165.85-40.85l1.38-7.25c56.43,10.7,112.35,26.09,166.43,40.98,51.64,14.22,105.05,28.92,158.71,39.47l-1.42,7.24Z"></path><path class="cls-1" d="m790.87,598.47l-1.48-7.23c58.9-12.03,113.05-36.23,165.42-59.62,50.52-22.57,102.76-45.91,159.63-58.63l1.61,7.2c-56.15,12.57-108.05,35.75-158.24,58.17-52.73,23.56-107.26,47.92-166.95,60.11Z"></path><path class="cls-1" d="m792.15,597.94l-4.04-6.17c58.15-38.09,91.51-84.26,129.48-151.13,34.25-60.31,76.92-109.01,134.31-153.27l4.51,5.85c-56.59,43.64-98.66,91.64-132.4,151.06-38.53,67.85-72.46,114.75-131.86,153.65Z"></path><path class="cls-1" d="m793.11,597.02l-5.97-4.35c48.54-66.58,57.37-140.1,66.73-217.93l1.06-8.82c10.59-87.57,33.88-160.49,73.3-229.5l6.41,3.66c-38.91,68.13-61.91,140.17-72.38,226.73l-1.06,8.82c-9.47,78.81-18.42,153.26-68.09,221.39Z"></path><path class="cls-1" d="m793.67,595.9l-7.08-2.1c26.03-87.77,7.14-171.72-12.85-260.6-1.18-5.25-2.36-10.51-3.54-15.76-12.49-56-19.5-98.86-22.72-138.97-4.04-50.42-1.88-96.45,6.63-140.73l7.25,1.39c-18.58,96.69-3.27,190.13,16.04,276.69,1.17,5.26,2.35,10.51,3.53,15.75,19.32,85.89,39.3,174.7,12.73,264.31Z"></path><path class="cls-1" d="m786.44,595.02c-4.9-109.3-59.82-204.33-112.94-296.23-52.78-91.32-107.36-185.75-113.81-294.88l7.37-.44c6.35,107.38,60.48,201.04,112.83,291.62,53.56,92.67,108.94,188.49,113.92,299.59l-7.38.33Z"></path><path class="cls-1" d="m786.7,596.23c-37.06-92.11-106.79-167.9-174.22-241.19-10.84-11.79-22.06-23.97-32.84-35.93-83.39-92.4-156.59-177.16-208.04-279l6.59-3.33c51.03,101.02,123.91,185.39,206.93,277.38,10.76,11.93,21.96,24.1,32.8,35.87,67.88,73.78,138.07,150.07,175.64,243.44l-6.85,2.76Z"></path><path class="cls-1" d="m787.27,597.18c-59.98-73.6-144.12-129.61-225.48-183.78-21.63-14.4-43.99-29.29-65.07-44-96.34-67.25-197.83-141.48-287.37-228.5l5.15-5.29c89.16,86.65,190.37,160.66,286.45,227.73,21.02,14.67,43.34,29.54,64.93,43.91,81.82,54.47,166.43,110.8,227.11,185.26l-5.72,4.66Z"></path><path class="cls-1" d="m788.25,598.03c-85.49-50.66-181.77-86.96-274.88-122.08-25.9-9.77-52.68-19.87-78.62-30.05-120.12-47.18-237.4-94.34-351.67-152.31l3.34-6.58c113.98,57.83,231.08,104.91,351.03,152.02,25.89,10.17,52.65,20.26,78.52,30.02,93.41,35.22,189.99,71.65,276.04,122.63l-3.76,6.35Z"></path><path class="cls-1" d="m789.47,598.48c-136.19-24.6-275.62-44.12-410.45-62.99-120.41-16.85-244.91-34.28-366.76-55.28l1.25-7.28c121.74,20.98,246.18,38.4,366.53,55.24,134.91,18.88,274.4,38.4,410.74,63.04l-1.31,7.26Z"></path><path class="cls-1" d="m13.46,678.95l-1.16-7.29c121.53-19.27,246.47-28.07,367.3-36.58,135.06-9.51,274.71-19.34,409.87-43.86l1.32,7.26c-135.55,24.59-275.41,34.43-410.67,43.96-120.67,8.5-245.45,17.28-366.66,36.51Z"></path><path class="cls-1" d="m86.35,865.82l-3.19-6.65c114.24-54.83,236.43-96.32,351.79-134.11,25.23-8.26,51.48-16.36,76.87-24.19,94.63-29.18,192.47-59.35,276.43-109.19l3.77,6.35c-84.71,50.28-182.98,80.59-278.02,109.89-25.36,7.82-51.58,15.9-76.75,24.15-115.13,37.72-237.06,79.11-350.9,133.75Z"></path><path class="cls-1" d="m214.44,1017.6l-5.04-5.39c89.77-83.92,191.22-150.84,287.47-210.65,20.37-12.66,41.14-24.88,63.13-37.82,83-48.85,168.83-99.36,227.26-171.21l5.73,4.66c-59.27,72.88-145.68,123.74-229.25,172.92-21.95,12.92-42.68,25.12-62.98,37.73-95.93,59.61-197.02,126.28-286.33,209.77Z"></path><path class="cls-1" d="m378.17,1115.52l-6.55-3.4c51.33-98.84,127.74-179.57,208.14-260.39,10.05-10.1,20.46-20.39,30.53-30.33,68.77-67.92,139.88-138.15,176.43-227.93l6.84,2.78c-37.12,91.19-108.78,161.96-178.08,230.4-10.06,9.93-20.46,20.2-30.48,30.28-79.97,80.4-155.97,160.68-206.82,258.59Z"></path></g></g></g></svg>