<svg xmlns="http://www.w3.org/2000/svg" id="Layer_2" data-name="Layer 2" viewBox="0 0 1078.6 1078.07"><defs><style>      .cls-1 {        fill: #231f20;      }    </style></defs><g id="Layer_1-2" data-name="Layer 1"><g><path class="cls-1" d="m539.05,1078.07c-177.85,0-355.51-.14-531.71-.43H.73s-.02-6.61-.02-6.61C-.24,718.36-.24,360.24.72,6.62l.02-6.62h6.62c352.4.58,710.58.58,1064.59.01h6.66s-.02,6.65-.02,6.65c-.95,354.08-.95,712.17,0,1064.34l.02,6.63h-6.63c-177.01.3-355.06.44-532.92.44Zm-525.1-13.67c348.09.55,701.7.55,1051.36,0-.93-347.84-.93-701.42,0-1051.12-349.63.55-703.3.55-1051.36,0-.93,349.25-.93,702.8,0,1051.12Z"></path><path class="cls-1" d="m60.93,1002.03c-17.97,0-35.92-.1-53.82-.32l.17-13.25c99.76,1.25,201.22-1.34,299.34-3.84,80.78-2.06,164.28-4.27,246.55-4.18,78.36.01,157.95,2.12,234.92,4.15,92.97,2.46,189.11,5,283.64,3.87l.16,13.25c-94.79,1.14-191.06-1.41-284.16-3.87-76.89-2.03-156.39-4.13-234.57-4.15h-.87c-81.77,0-164.92,2.12-245.33,4.17-80.66,2.06-163.58,4.17-246.02,4.17Z"></path><path class="cls-1" d="m14.07,925.68c-2.3,0-4.59,0-6.89-.01l.04-13.25c97.26.33,195.9-6.45,291.32-13.01,93.39-6.42,189.95-13.05,285.35-13.05,81.07,0,162.91,6.64,242.05,13.06,80.47,6.53,163.77,13.24,245.84,13.01l.05,13.25c-82.71.26-166.21-6.5-246.96-13.05-78.88-6.4-160.44-13.02-240.98-13.02-94.94,0-191.27,6.62-284.44,13.02-93.41,6.42-189.92,13.05-285.39,13.05Z"></path><path class="cls-1" d="m7.43,849.58l-.22-13.25c99.01-1.64,199.15-13.47,295.99-24.92,105.13-12.43,213.79-25.25,321.77-25.19,78.14.06,155.67,12.83,230.64,25.19,70.54,11.62,143.49,23.64,216.44,24.92l-.23,13.25c-73.92-1.3-147.35-13.4-218.36-25.1-74.45-12.27-151.44-24.96-228.5-25.01h-1c-106.8,0-214.77,12.76-319.19,25.1-97.17,11.48-197.65,23.36-297.33,25.01Z"></path><path class="cls-1" d="m7.72,773.46l-.51-13.24c102.55-3.94,206.13-21.03,306.3-37.54,116.14-19.15,236.26-39.05,355.82-38.53,73.42.26,143.56,19.65,211.39,38.39,61.83,17.09,125.77,34.76,191.65,37.68l-.59,13.24c-67.38-2.98-132.05-20.86-194.6-38.14-66.99-18.51-136.26-37.66-207.91-37.91-118.48-.46-238.01,19.29-353.62,38.35-100.57,16.59-204.57,33.73-307.94,37.71Z"></path><path class="cls-1" d="m7.94,697.36l-.73-13.23c106.77-5.9,214.65-27.84,318.98-49.05,125.22-25.46,254.77-51.82,383.75-50.8,69.48.53,131.41,25.92,191.3,50.48,54.19,22.22,110.22,45.2,171.4,49.37l-.9,13.22c-63.32-4.31-120.36-27.7-175.53-50.33-58.73-24.08-119.45-48.98-186.36-49.49-127.7-1.03-256.46,25.21-381.01,50.53-104.8,21.31-213.16,43.34-320.89,49.29Z"></path><path class="cls-1" d="m7.99,621.33l-.82-13.23c114.83-7.07,229.61-30.97,340.6-54.07,15.14-3.15,30.27-6.3,45.4-9.41,20.89-4.29,42.51-9,63.41-13.56,92.99-20.26,189.09-41.19,283.17-40.3,67.68.67,122.49,30.49,175.5,59.33,48.24,26.25,98.13,53.39,157.45,58.02l-1.03,13.21c-62.14-4.85-113.29-32.67-162.76-59.59-53.96-29.36-104.92-57.09-169.3-57.72-92.6-.92-187.94,19.89-280.22,40-20.94,4.56-42.59,9.28-63.56,13.59-15.12,3.11-30.24,6.25-45.37,9.4-111.45,23.2-226.7,47.19-342.49,54.32Z"></path><path class="cls-1" d="m7.76,545.4l-.68-13.24c116.33-6.01,232.94-34.24,345.71-61.54,129.77-31.42,263.86-63.85,398.92-62.92,61.5.45,109.22,16.86,154.73,53.21,54.83,43.79,95.55,66.84,166,71.26l-.83,13.23c-73.57-4.61-117.71-29.61-173.45-74.13-43.03-34.37-88.23-49.89-146.56-50.31-1.96-.01-3.92-.02-5.88-.02-131.37,0-262.73,31.8-389.82,62.57-113.36,27.44-230.58,55.82-348.14,61.9Z"></path><path class="cls-1" d="m7.99,469.27l-.82-13.23c114.82-7.08,229.59-30.97,340.58-54.07,15.15-3.15,30.28-6.3,45.42-9.41,20.89-4.29,42.5-9,63.4-13.56,92.99-20.27,189.09-41.18,283.18-40.31,67.68.66,122.49,30.49,175.5,59.33,48.24,26.25,98.13,53.39,157.45,58.02l-1.03,13.21c-62.14-4.85-113.29-32.68-162.76-59.59-53.96-29.36-104.92-57.09-169.3-57.72-92.6-.91-187.95,19.89-280.23,40-20.93,4.56-42.58,9.28-63.55,13.59-15.13,3.11-30.25,6.26-45.39,9.41-111.45,23.2-226.69,47.19-342.46,54.32Z"></path><path class="cls-1" d="m7.94,393.25l-.73-13.23c106.77-5.9,214.65-27.84,318.98-49.05,125.22-25.46,254.77-51.82,383.75-50.8,69.48.53,131.4,25.92,191.29,50.48,54.19,22.22,110.22,45.2,171.4,49.37l-.9,13.22c-63.32-4.31-120.36-27.71-175.53-50.33-58.73-24.08-119.45-48.98-186.37-49.49-127.69-1.02-256.46,25.21-381.01,50.53-104.8,21.31-213.16,43.34-320.89,49.29Z"></path><path class="cls-1" d="m7.72,317.29l-.51-13.24c102.55-3.94,206.13-21.03,306.3-37.54,114.9-18.95,233.68-38.53,351.99-38.53,1.28,0,2.55,0,3.83,0,73.42.26,143.56,19.65,211.39,38.39,61.83,17.09,125.78,34.76,191.65,37.68l-.59,13.24c-67.38-2.98-132.05-20.86-194.6-38.14-66.99-18.51-136.26-37.66-207.9-37.92-118.51-.41-238.01,19.29-353.62,38.35-100.57,16.58-204.57,33.73-307.94,37.71Z"></path><path class="cls-1" d="m7.43,241.36l-.22-13.25c99.01-1.64,199.15-13.48,295.99-24.92,104.8-12.39,213.18-25.19,320.75-25.19h1.01c78.14.06,155.67,12.83,230.64,25.19,70.55,11.62,143.49,23.64,216.44,24.93l-.23,13.25c-73.92-1.3-147.35-13.4-218.36-25.1-74.45-12.27-151.43-24.95-228.49-25.01h-1c-106.81,0-214.77,12.76-319.2,25.1-97.17,11.48-197.65,23.36-297.33,25.01Z"></path><path class="cls-1" d="m14.07,165.41c-2.3,0-4.59,0-6.89-.01l.04-13.25c97.26.33,195.9-6.45,291.32-13.01,93.39-6.42,189.95-13.05,285.35-13.05,81.07,0,162.91,6.64,242.05,13.06,78.88,6.4,160.39,13.01,240.96,13.01,1.63,0,3.26,0,4.88,0l.05,13.25c-82.68.27-166.22-6.5-246.97-13.05-78.88-6.4-160.44-13.02-240.97-13.02-94.94,0-191.27,6.62-284.44,13.02-93.41,6.42-189.92,13.05-285.39,13.05Z"></path><path class="cls-1" d="m60.9,89.7c-17.97,0-35.9-.1-53.8-.32l.17-13.25c99.74,1.25,201.21-1.34,299.32-3.84,80.5-2.05,163.74-4.18,245.69-4.18h.87c78.36.01,157.96,2.12,234.93,4.15,92.97,2.46,189.11,5,283.63,3.87l.16,13.25c-94.78,1.13-191.05-1.41-284.14-3.87-76.89-2.03-156.4-4.13-234.58-4.15h-.87c-81.78,0-164.93,2.12-245.35,4.17-80.66,2.06-163.59,4.17-246.03,4.17Z"></path><path class="cls-1" d="m1009.16,1071.23c-2.03-101.35.9-204.34,3.73-303.94,2.17-76.43,4.42-155.47,4.4-233.15-.01-76.3-2.24-153.93-4.39-229-2.8-97.83-5.7-198.98-3.75-298.54l13.25.26c-1.94,99.24.95,200.23,3.74,297.9,2.15,75.16,4.38,152.89,4.39,229.38.01,77.88-2.23,157.01-4.41,233.54-2.83,99.44-5.75,202.26-3.73,303.3l-13.25.26Z"></path><path class="cls-1" d="m953.1,1071.23c-1.65-96.39,5.87-193.83,13.14-288.05,6.57-85.08,13.35-173.05,13.34-259.8,0-82.08-6.78-165.24-13.32-245.67-7.22-88.64-14.68-180.3-13.16-271.08l13.25.22c-1.51,90.13,5.92,181.46,13.11,269.78,6.57,80.69,13.36,164.13,13.37,246.75,0,87.26-6.8,175.49-13.38,260.82-7.25,93.92-14.74,191.05-13.1,286.81l-13.25.23Z"></path><path class="cls-1" d="m910.36,1071.09h-13.25c.04-95.02,13.36-190.13,26.25-282.11,12.84-91.71,26.13-186.54,26.12-280.83,0-84.2-13.27-168.45-26.11-249.92-12.89-81.83-26.22-166.45-26.26-251.51h13.25c.04,84.02,13.29,168.12,26.1,249.45,12.92,81.97,26.27,166.74,26.27,251.98,0,95.21-13.34,190.51-26.25,282.67-12.82,91.53-26.08,186.19-26.12,280.28Z"></path><path class="cls-1" d="m854.42,1071.21l-13.25-.35c2.54-95.5,22.37-190.07,41.55-281.52,20.42-97.37,41.53-198.07,41.46-299.24-.05-84.48-21.05-167.06-41.35-246.93-19.38-76.26-39.43-155.11-41.66-236.33l13.25-.37c2.19,79.75,22.05,157.87,41.26,233.43,20.5,80.66,41.7,164.06,41.76,250.19.07,102.55-21.19,203.92-41.75,301.96-19.06,90.88-38.76,184.86-41.27,279.15Z"></path><path class="cls-1" d="m798.49,1071.34l-13.23-.74c5.38-96.91,31.97-192.04,57.68-284.05,28.62-102.39,58.2-208.27,57.94-315.66-.21-83.98-29.35-163.26-57.54-239.93-26.25-71.41-53.4-145.26-58.08-223.98l13.23-.79c4.56,76.77,31.36,149.68,57.29,220.2,28.58,77.75,58.14,158.15,58.35,244.47.27,109.22-29.57,216-58.43,319.26-25.52,91.32-51.91,185.75-57.21,281.22Z"></path><path class="cls-1" d="m742.55,1071.45l-13.21-1.08c8.1-98.76,41.26-195.18,73.32-288.41,36.71-106.72,74.66-217.07,74.07-329.77-.43-83.38-35.76-155.14-73.16-231.13-33.04-67.13-67.21-136.54-74.23-213.93l13.2-1.2c6.8,74.94,40.41,143.23,72.92,209.28,36.42,73.98,74.07,150.48,74.52,236.91.6,114.94-37.73,226.38-74.79,334.15-31.8,92.46-64.68,188.08-72.65,285.19Z"></path><path class="cls-1" d="m686.57,1071.54l-13.19-1.34c10.95-107.89,48.89-210.18,85.58-309.1,3.33-8.99,6.67-17.98,9.98-26.97,4.92-13.36,9.98-26.66,15.33-40.74,30.63-80.57,65.35-171.89,64.67-257.77-.67-83.08-42.49-150.64-86.77-222.16-39.27-63.43-79.88-129.02-88.78-206.21l13.17-1.52c8.56,74.25,48.37,138.56,86.88,200.75,43.29,69.93,88.06,142.23,88.76,229.03.71,88.37-34.48,180.92-65.53,262.59-5.34,14.05-10.39,27.32-15.29,40.61-3.32,9-6.66,18-9.99,27-36.4,98.14-74.04,199.62-84.82,305.83Z"></path><path class="cls-1" d="m630.53,1071.59l-13.18-1.45c12.02-109.38,53.92-212,94.45-311.23,4.35-10.64,8.69-21.28,13-31.92,5.63-13.9,11.46-27.82,17.63-42.57,34.26-81.77,73.08-174.45,72.25-261.58-.8-83.26-47.55-146.9-97.05-214.27-44.45-60.5-90.41-123.06-100.27-201.25l13.15-1.66c9.43,74.78,54.36,135.93,97.8,195.06,48.56,66.1,98.78,134.45,99.62,221.99.86,89.86-38.53,183.88-73.28,266.83-6.16,14.71-11.98,28.6-17.57,42.42-4.31,10.66-8.66,21.31-13.01,31.96-40.18,98.39-81.73,200.13-93.55,307.67Z"></path><path class="cls-1" d="m574.42,1071.6l-13.18-1.35c11.28-109.93,55.72-212.21,98.7-311.12,5.26-12.09,10.5-24.17,15.69-36.25,5.74-13.38,11.67-26.78,17.95-40.95,36.73-82.96,78.36-176.98,77.58-266.42-.73-83.92-50.3-144.42-102.79-208.46-48.05-58.64-97.74-119.28-107.13-199.72l13.17-1.54c8.93,76.59,57.37,135.7,104.21,192.86,51.63,63,105.02,128.15,105.79,216.75.81,92.3-41.44,187.72-78.72,271.91-6.26,14.14-12.17,27.5-17.89,40.82-5.19,12.09-10.45,24.19-15.71,36.3-42.58,97.99-86.61,199.31-97.68,307.19Z"></path><path class="cls-1" d="m518.38,1071.6l-13.18-1.35c11.28-109.93,55.72-212.21,98.71-311.13,5.25-12.09,10.5-24.17,15.69-36.24,5.74-13.38,11.67-26.78,17.95-40.96,36.73-82.96,78.36-176.98,77.58-266.42-.73-83.92-50.3-144.42-102.79-208.46-48.05-58.64-97.74-119.27-107.13-199.72l13.17-1.54c8.93,76.59,57.37,135.7,104.22,192.86,51.63,63,105.02,128.15,105.79,216.75.8,92.3-41.45,187.72-78.72,271.9-6.26,14.14-12.18,27.5-17.89,40.82-5.19,12.09-10.45,24.19-15.71,36.3-42.58,97.99-86.61,199.32-97.68,307.2Z"></path><path class="cls-1" d="m462.44,1071.59l-13.17-1.44c12.01-109.37,53.91-211.97,94.44-311.2,4.35-10.66,8.7-21.3,13.01-31.96,5.62-13.89,11.46-27.82,17.63-42.56,34.26-81.78,73.08-174.46,72.25-261.59-.8-83.26-47.55-146.9-97.05-214.27-44.45-60.5-90.41-123.06-100.27-201.25l13.15-1.66c9.43,74.78,54.35,135.93,97.8,195.06,48.56,66.1,98.78,134.45,99.62,221.99.86,89.86-38.53,183.88-73.28,266.84-6.16,14.7-11.98,28.59-17.57,42.41-4.32,10.67-8.67,21.33-13.03,32-40.18,98.38-81.72,200.11-93.53,307.63Z"></path><path class="cls-1" d="m406.41,1071.54l-13.19-1.34c10.95-107.89,48.89-210.17,85.58-309.09,3.33-8.99,6.67-17.99,9.99-26.98,4.92-13.36,9.98-26.65,15.33-40.73,30.63-80.57,65.36-171.9,64.67-257.78-.67-83.08-42.49-150.64-86.77-222.16-39.27-63.43-79.88-129.02-88.78-206.21l13.17-1.52c8.56,74.25,48.37,138.56,86.88,200.75,43.29,69.93,88.06,142.23,88.76,229.03.71,88.37-34.48,180.93-65.53,262.59-5.34,14.05-10.39,27.31-15.28,40.6-3.32,9.01-6.66,18.01-10,27.01-36.4,98.14-74.03,199.62-84.81,305.82Z"></path><path class="cls-1" d="m350.32,1071.45l-13.21-1.08c8.1-98.76,41.26-195.18,73.33-288.41,36.7-106.72,74.66-217.07,74.07-329.77-.43-83.38-35.76-155.14-73.16-231.13-33.04-67.13-67.21-136.54-74.23-213.93l13.2-1.2c6.8,74.94,40.42,143.23,72.92,209.28,36.42,73.98,74.07,150.48,74.52,236.91.6,114.94-37.73,226.38-74.79,334.15-31.8,92.47-64.69,188.08-72.65,285.19Z"></path><path class="cls-1" d="m294.2,1071.34l-13.23-.74c5.38-96.91,31.97-192.04,57.68-284.05,28.61-102.39,58.2-208.27,57.94-315.65-.21-83.98-29.35-163.26-57.54-239.93-26.25-71.41-53.4-145.26-58.08-223.98l13.23-.79c4.56,76.77,31.36,149.68,57.29,220.2,28.58,77.75,58.14,158.15,58.35,244.47.27,109.22-29.57,216-58.43,319.26-25.52,91.32-51.91,185.75-57.21,281.22Z"></path><path class="cls-1" d="m238.07,1071.21l-13.25-.35c2.54-95.5,22.37-190.07,41.55-281.53,20.42-97.37,41.53-198.06,41.47-299.23-.06-84.48-21.05-167.06-41.35-246.93-19.39-76.26-39.43-155.11-41.66-236.33l13.25-.37c2.19,79.74,22.05,157.87,41.26,233.43,20.5,80.66,41.71,164.06,41.76,250.19.07,102.55-21.19,203.92-41.75,301.96-19.06,90.88-38.76,184.86-41.27,279.16Z"></path><path class="cls-1" d="m181.95,1071.09h-13.25c.04-95.01,13.37-190.13,26.25-282.11,12.84-91.71,26.13-186.55,26.12-280.84,0-84.2-13.27-168.45-26.11-249.92-12.89-81.83-26.22-166.45-26.26-251.51h13.25c.04,84.02,13.29,168.12,26.1,249.45,12.91,81.97,26.27,166.74,26.27,251.98,0,95.21-13.34,190.51-26.25,282.67-12.82,91.53-26.08,186.19-26.12,280.27Z"></path><path class="cls-1" d="m112.62,1071.23c-1.65-96.39,5.87-193.83,13.14-288.06,6.56-85.07,13.35-173.04,13.34-259.8,0-82.08-6.78-165.24-13.33-245.67-7.22-88.64-14.68-180.3-13.15-271.08l13.25.22c-1.51,90.13,5.92,181.46,13.11,269.78,6.57,80.69,13.36,164.13,13.37,246.75,0,87.26-6.8,175.49-13.38,260.82-7.25,93.93-14.74,191.05-13.1,286.81l-13.25.23Z"></path><path class="cls-1" d="m56.62,1071.23c-2.03-101.36.9-204.35,3.73-303.95,2.17-76.43,4.42-155.47,4.4-233.15-.01-76.31-2.24-153.94-4.38-229.02-2.8-97.82-5.7-198.97-3.75-298.53l13.25.26c-1.94,99.23.95,200.22,3.75,297.89,2.15,75.17,4.38,152.9,4.39,229.39.01,77.88-2.24,157-4.41,233.53-2.83,99.44-5.75,202.27-3.73,303.31l-13.25.26Z"></path></g></g></svg>