<svg xmlns="http://www.w3.org/2000/svg" id="Layer_2" data-name="Layer 2" viewBox="0 0 1169.51 1004.57"><defs><style>      .cls-1 {        fill: #231f20;      }    </style></defs><g id="Layer_1-2" data-name="Layer 1"><g><path class="cls-1" d="m584.76,14.9c-153.69,0-298.11,12.9-406.64,36.31C75.92,73.26,14.9,103.46,14.9,132c0,28.54,61.01,58.74,163.21,80.79,108.54,23.42,252.95,36.31,406.64,36.31,153.69,0,298.11-12.9,406.64-36.31,102.2-22.05,163.21-52.25,163.21-80.79,0-28.54-61.01-58.74-163.21-80.79-108.54-23.42-252.95-36.31-406.64-36.31Zm0,249.1c-154.72,0-300.25-13.01-409.79-36.65C95.15,210.13,0,179.61,0,132,0,84.39,95.15,53.87,174.97,36.65,284.51,13.01,430.04,0,584.76,0c154.72,0,300.25,13.01,409.79,36.65,79.82,17.22,174.97,47.74,174.97,95.35,0,47.61-95.15,78.13-174.97,95.35-109.54,23.63-255.07,36.65-409.79,36.65Z"></path><path class="cls-1" d="m184.78,278.85c28.51,6.49,60.08,12.54,94.26,17.56,89.67,13.01,195.19,20.01,305.72,20.01,110.53,0,216.05-7,305.71-20.01,34.19-5.02,65.75-11.08,94.26-17.56,94.22-21.43,150.63-49.12,150.63-75.8,0-26.68-56.4-54.37-150.63-75.8-28.51-6.49-60.08-12.54-94.26-17.56-89.67-13.01-195.19-20.01-305.71-20.01-110.53,0-216.05,7-305.72,20.01-34.19,5.02-65.75,11.08-94.26,17.56-94.22,21.43-150.63,49.12-150.63,75.8,0,26.68,56.4,54.37,150.63,75.8ZM19.25,203.05c0-45.85,90.5-75.61,169.03-92.65,106.09-23,247.25-35.62,396.48-35.62,149.23,0,290.39,12.62,396.48,35.62,78.53,17.05,169.03,46.8,169.03,92.65,0,45.85-90.5,75.61-169.03,92.65-106.09,23-247.25,35.62-396.48,35.62-149.23,0-290.39-12.62-396.48-35.62-78.53-17.05-169.03-46.8-169.03-92.65Z"></path><path class="cls-1" d="m191.45,344.92c27.49,6.61,58.42,13.12,92.48,18.39,87.55,13.28,191.64,20.44,300.83,20.44,109.18,0,213.28-7.16,300.83-20.44,34.06-5.27,64.99-11.78,92.48-18.39,86.26-20.74,138.05-46,138.05-70.82,0-24.82-51.78-50.09-138.05-70.82-27.49-6.61-58.42-13.12-92.48-18.39-87.55-13.28-191.64-20.44-300.83-20.44-109.18,0-213.28,7.16-300.83,20.44-34.06,5.27-64.99,11.78-92.48,18.39-86.26,20.74-138.05,46-138.05,70.82,0,24.82,51.78,50.09,138.05,70.82Zm-152.95-70.82c0-44.1,85.84-73.08,163.08-89.95,102.65-22.37,239.43-34.6,383.18-34.6,143.74,0,280.53,12.23,383.17,34.6,77.24,16.87,163.08,45.86,163.08,89.95,0,44.1-85.84,73.08-163.08,89.95-102.64,22.37-239.43,34.6-383.17,34.6-143.74,0-280.53-12.23-383.18-34.6-77.24-16.87-163.08-45.86-163.08-89.95Z"></path><path class="cls-1" d="m198.11,410.98c26.48,6.74,56.76,13.77,90.7,19.22,85.41,13.72,188.1,20.87,295.94,20.87,107.84,0,210.53-7.15,295.94-20.87,33.94-5.45,64.22-12.48,90.7-19.22,78.31-19.94,125.47-42.88,125.47-65.84,0-22.96-47.15-45.9-125.47-65.84-26.48-6.74-56.76-13.77-90.7-19.22-85.41-13.72-188.1-20.87-295.94-20.87-107.84,0-210.53,7.15-295.94,20.87-33.94,5.45-64.22,12.48-90.7,19.22-78.31,19.94-125.47,42.88-125.47,65.84,0,22.97,47.15,45.9,125.47,65.84Zm-140.37-65.84c0-42.34,81.19-70.55,157.14-87.25,99.2-21.74,231.62-33.58,369.87-33.58,138.25,0,270.67,11.83,369.87,33.58,75.96,16.7,157.14,44.91,157.14,87.25s-81.19,70.55-157.14,87.25c-99.2,21.74-231.62,33.58-369.87,33.58-138.25,0-270.67-11.83-369.87-33.58-75.95-16.7-157.14-44.91-157.14-87.25Z"></path><path class="cls-1" d="m204.78,477.05c25.47,6.89,55.1,14.36,88.92,20.05,83.29,14.01,184.55,21.3,291.05,21.3,106.5,0,207.76-7.29,291.05-21.3,33.82-5.69,63.46-13.16,88.92-20.05,70.38-19.04,112.89-39.75,112.89-60.86,0-21.11-42.51-41.82-112.89-60.86-25.47-6.89-55.1-14.36-88.92-20.05-83.29-14.01-184.55-21.3-291.05-21.3-106.5,0-207.76,7.29-291.05,21.3-33.82,5.69-63.46,13.16-88.92,20.05-70.38,19.04-112.89,39.75-112.89,60.86,0,21.11,42.51,41.82,112.89,60.86Zm-127.79-60.86c0-40.58,76.53-68.02,151.2-84.55,95.75-21.11,223.8-32.56,356.56-32.56,132.77,0,260.81,11.44,356.56,32.56,74.67,16.53,151.2,43.97,151.2,84.55,0,40.58-76.53,68.03-151.2,84.55-95.75,21.11-223.8,32.56-356.56,32.56-132.77,0-260.81-11.44-356.56-32.56-74.67-16.53-151.2-43.97-151.2-84.55Z"></path><path class="cls-1" d="m211.45,543.11c24.46,7.06,53.45,14.95,87.14,20.88,81.17,14.29,181.01,21.73,286.17,21.73,105.16,0,204.99-7.43,286.16-21.72,33.7-5.93,62.69-13.83,87.14-20.88,62.46-18.02,100.3-36.63,100.3-55.88,0-19.25-37.84-37.86-100.3-55.88-24.46-7.06-53.45-14.95-87.14-20.88-81.17-14.29-181.01-21.72-286.16-21.72-105.16,0-205,7.43-286.17,21.72-33.69,5.93-62.69,13.83-87.14,20.88-62.46,18.02-100.31,36.63-100.31,55.88,0,19.25,37.84,37.86,100.31,55.88Zm-115.21-55.88c0-38.82,71.88-65.5,145.26-81.85,92.31-20.49,215.98-31.53,343.26-31.53,127.28,0,250.95,11.05,343.26,31.53,73.38,16.35,145.26,43.03,145.26,81.85,0,38.83-71.88,65.5-145.26,81.85-92.3,20.49-215.98,31.53-343.26,31.53-127.28,0-250.95-11.05-343.26-31.53-73.38-16.35-145.26-43.03-145.26-81.85Z"></path><path class="cls-1" d="m218.12,609.18c23.44,7.25,51.79,15.53,85.36,21.71,79.05,14.56,177.46,22.15,281.28,22.15,103.82,0,202.22-7.6,281.28-22.15,33.57-6.18,61.92-14.46,85.36-21.71,54.57-16.87,87.72-33.5,87.72-50.89,0-17.39-33.15-34.02-87.72-50.89-23.44-7.25-51.79-15.53-85.36-21.71-79.05-14.56-177.46-22.15-281.28-22.15-103.82,0-202.22,7.6-281.28,22.15-33.57,6.18-61.92,14.46-85.36,21.71-54.57,16.87-87.72,33.5-87.72,50.89,0,17.39,33.15,34.02,87.72,50.89Zm-102.63-50.89c0-37.07,67.23-62.97,139.31-79.15,88.86-19.86,208.16-30.51,329.95-30.51,121.79,0,241.09,10.65,329.95,30.51,72.09,16.18,139.32,42.08,139.32,79.15,0,37.07-67.23,62.97-139.32,79.15-88.86,19.86-208.16,30.51-329.95,30.51-121.79,0-241.09-10.65-329.95-30.51-72.09-16.18-139.31-42.08-139.31-79.15Z"></path><path class="cls-1" d="m224.78,675.24c22.43,7.48,50.14,16.11,83.58,22.54,76.94,14.81,173.92,22.58,276.39,22.58,102.47,0,199.45-7.78,276.39-22.58,33.44-6.44,61.16-15.06,83.58-22.54,46.71-15.57,75.14-30.38,75.14-45.91,0-15.53-28.43-30.34-75.14-45.91-22.43-7.48-50.14-16.11-83.58-22.54-76.94-14.81-173.91-22.58-276.39-22.58-102.47,0-199.45,7.77-276.39,22.58-33.44,6.44-61.16,15.06-83.58,22.54-46.71,15.58-75.14,30.38-75.14,45.91,0,15.53,28.43,30.34,75.14,45.91Zm-90.05-45.91c0-35.31,62.57-60.44,133.37-76.45,85.41-19.23,200.34-29.49,316.65-29.49,116.3,0,231.23,10.26,316.65,29.49,70.8,16.01,133.37,41.14,133.37,76.45,0,35.31-62.57,60.44-133.37,76.45-85.41,19.23-200.34,29.49-316.65,29.49-116.3,0-231.24-10.26-316.65-29.49-70.8-16.01-133.37-41.14-133.37-76.45Z"></path><path class="cls-1" d="m231.45,741.31c21.4,7.76,48.49,16.67,81.8,23.37,74.83,15.04,170.37,23.01,271.5,23.01,101.13,0,196.67-7.97,271.5-23.01,33.31-6.7,60.41-15.61,81.8-23.37,38.9-14.12,62.56-27.25,62.56-40.93,0-13.68-23.66-26.81-62.56-40.93-21.4-7.77-48.49-16.67-81.8-23.37-74.83-15.04-170.37-23.01-271.5-23.01-101.13,0-196.67,7.97-271.5,23.01-33.31,6.7-60.41,15.61-81.8,23.37-38.9,14.12-62.56,27.25-62.56,40.93,0,13.68,23.66,26.81,62.56,40.93Zm-77.47-40.93c0-33.55,57.92-57.92,127.43-73.75,81.96-18.6,192.52-28.46,303.34-28.46,110.82,0,221.38,9.87,303.34,28.46,69.51,15.83,127.43,40.2,127.43,73.75,0,33.55-57.92,57.92-127.43,73.75-81.96,18.6-192.52,28.46-303.34,28.46-110.82,0-221.38-9.87-303.34-28.46-69.51-15.83-127.43-40.2-127.43-73.75Z"></path><path class="cls-1" d="m238.12,807.37c20.33,8.15,46.85,17.18,80.02,24.2,72.75,15.14,166.82,23.44,266.61,23.44,99.79,0,193.87-8.3,266.61-23.44,33.17-7.02,59.69-16.06,80.02-24.2,31.15-12.48,49.98-24.13,49.98-35.95,0-11.82-18.83-23.47-49.98-35.95-20.33-8.15-46.85-17.18-80.02-24.2-72.75-15.14-166.82-23.44-266.61-23.44-99.79,0-193.87,8.3-266.61,23.44-33.17,7.02-59.69,16.06-80.02,24.2-31.15,12.48-49.98,24.13-49.98,35.95,0,11.82,18.83,23.47,49.98,35.95Zm-64.89-35.95c0-31.8,53.26-55.39,121.49-71.05,78.52-17.97,184.71-27.44,290.04-27.44,105.33,0,211.52,9.47,290.03,27.44,68.22,15.66,121.49,39.26,121.49,71.05,0,31.8-53.26,55.39-121.49,71.05-78.52,17.97-184.71,27.44-290.03,27.44-105.33,0-211.52-9.47-290.04-27.44-68.22-15.66-121.49-39.26-121.49-71.05Z"></path><path class="cls-1" d="m244.79,873.44c19.19,8.7,45.2,17.76,78.24,25.03,70.63,15.4,163.28,23.87,261.73,23.87,98.45,0,191.09-8.47,261.73-23.87,33.04-7.28,59.06-16.33,78.24-25.03,23.5-10.66,37.4-21.01,37.4-30.97,0-9.96-13.9-20.31-37.4-30.97-19.19-8.7-45.2-17.76-78.24-25.03-70.63-15.4-163.28-23.87-261.73-23.87-98.45,0-191.09,8.47-261.73,23.87-33.04,7.28-59.06,16.33-78.24,25.03-23.5,10.66-37.4,21.01-37.4,30.97,0,9.96,13.9,20.31,37.4,30.97Zm-52.3-30.97c0-30.04,48.61-52.86,115.55-68.35,75.07-17.34,176.89-26.42,276.73-26.42,99.84,0,201.66,9.08,276.73,26.42,66.94,15.49,115.55,38.31,115.55,68.35,0,30.04-48.61,52.86-115.55,68.35-75.07,17.34-176.89,26.42-276.73,26.42-99.84,0-201.66-9.08-276.73-26.42-66.94-15.49-115.55-38.31-115.55-68.35Z"></path><path class="cls-1" d="m584.76,837.38c-97.11,0-188.32,8.63-256.84,24.3-32.92,7.53-58.64,16.23-76.46,25.86-16.01,8.65-24.82,17.88-24.82,25.98,0,8.1,8.81,17.33,24.82,25.98,17.82,9.63,43.55,18.34,76.46,25.86,68.52,15.67,159.73,24.3,256.84,24.3,97.11,0,188.32-8.63,256.84-24.3,32.92-7.53,58.64-16.23,76.46-25.86,16.01-8.65,24.82-17.88,24.82-25.98,0-8.1-8.81-17.33-24.82-25.98-17.82-9.63-43.55-18.34-76.46-25.86-68.52-15.67-159.73-24.3-256.84-24.3Zm0,167.19c-180.83,0-373.03-31.91-373.03-91.05,0-59.14,192.19-91.05,373.03-91.05,180.83,0,373.03,31.91,373.03,91.05s-192.19,91.05-373.03,91.05Z"></path></g></g></svg>