<svg xmlns="http://www.w3.org/2000/svg" id="Layer_2" data-name="Layer 2" viewBox="0 0 1220.79 1085.97"><defs><style>      .cls-1 {        fill: #231f20;      }    </style></defs><g id="Layer_1-2" data-name="Layer 1"><g><g><path class="cls-1" d="m553.72,603.33c-4.02,0-7.63-2.07-9.65-5.55-2.03-3.49-2.05-7.67-.04-11.17l56.33-98.35c2.01-3.5,5.62-5.61,9.66-5.62.01,0,.03,0,.04,0,4.02,0,7.63,2.07,9.65,5.55l57.01,97.96c2.03,3.49,2.05,7.67.04,11.17-2.01,3.5-5.62,5.61-9.66,5.62l-113.34.39h-.04Zm56.33-119.82s-.02,0-.04,0c-3.73.01-7.05,1.95-8.91,5.18l-56.33,98.35c-1.85,3.23-1.84,7.08.04,10.3,1.87,3.21,5.19,5.12,8.9,5.12h.04l113.34-.39c3.73-.01,7.05-1.95,8.91-5.18,1.85-3.23,1.84-7.08-.04-10.3l-57.01-97.96c-1.87-3.21-5.19-5.12-8.9-5.12Z"></path><path class="cls-1" d="m553.72,603.5h0c-4.08,0-7.75-2.11-9.8-5.64-2.06-3.54-2.08-7.79-.04-11.34l56.33-98.35c2.04-3.56,5.7-5.69,9.81-5.71h.04c4.08,0,7.75,2.11,9.8,5.64l57.01,97.96c2.06,3.54,2.08,7.79.04,11.34-2.04,3.56-5.7,5.69-9.81,5.71l-113.38.39Zm56.33-120.69h-.04c-3.98.01-7.53,2.08-9.51,5.53l-56.33,98.35c-1.98,3.45-1.96,7.56.04,11,1.99,3.42,5.54,5.47,9.5,5.47h.04l113.33-.39c3.98-.01,7.53-2.08,9.51-5.53,1.98-3.45,1.96-7.56-.04-11l-57.01-97.96c-1.99-3.42-5.54-5.47-9.5-5.47Zm-56.33,119.82c-3.77,0-7.16-1.95-9.05-5.21-1.91-3.27-1.92-7.19-.04-10.48l56.33-98.35c1.88-3.29,5.27-5.26,9.06-5.27h.04c3.77,0,7.16,1.95,9.05,5.21l57.01,97.96c1.91,3.27,1.92,7.19.04,10.48-1.88,3.29-5.27,5.26-9.06,5.27l-113.37.39Zm56.33-118.96h-.04c-3.66.01-6.94,1.92-8.76,5.1l-56.33,98.35c-1.82,3.18-1.81,6.97.03,10.13,1.83,3.15,5.11,5.04,8.76,5.04h.04l113.33-.39c3.66-.01,6.94-1.92,8.76-5.1,1.82-3.18,1.81-6.97-.03-10.13l-57.01-97.96c-1.83-3.15-5.11-5.04-8.75-5.04Z"></path></g><g><path class="cls-1" d="m547.78,609.66c-4.44,0-8.43-2.29-10.67-6.13-2.24-3.86-2.26-8.47-.04-12.34l62.24-108.66c2.22-3.87,6.21-6.19,10.67-6.21.01,0,.03,0,.04,0,4.44,0,8.43,2.29,10.67,6.13l62.98,108.23c2.24,3.86,2.26,8.47.04,12.34-2.22,3.87-6.21,6.19-10.67,6.21l-125.22.43h-.04Zm62.24-132.39s-.03,0-.04,0c-4.12.01-7.79,2.15-9.84,5.73l-62.24,108.66c-2.05,3.57-2.03,7.83.04,11.39,2.06,3.55,5.74,5.66,9.84,5.66h.04l125.22-.43c4.12-.01,7.79-2.15,9.84-5.73,2.05-3.57,2.03-7.83-.04-11.39l-62.98-108.23c-2.06-3.55-5.74-5.66-9.84-5.66Z"></path><path class="cls-1" d="m547.78,609.85h0c-4.51,0-8.56-2.33-10.83-6.23-2.28-3.92-2.3-8.6-.04-12.53l62.24-108.66c2.25-3.93,6.3-6.29,10.83-6.3h.05c4.51,0,8.56,2.33,10.83,6.23l62.98,108.23c2.28,3.92,2.3,8.6.04,12.53-2.25,3.93-6.3,6.29-10.83,6.3l-125.27.43Zm62.24-133.35h-.04c-4.39.02-8.32,2.3-10.5,6.11l-62.24,108.66c-2.18,3.81-2.17,8.35.04,12.15,2.2,3.78,6.13,6.04,10.5,6.04h.04l125.22-.43c4.39-.02,8.32-2.3,10.5-6.11,2.18-3.81,2.17-8.35-.04-12.15l-62.98-108.23c-2.2-3.78-6.13-6.04-10.5-6.04Zm-62.24,132.39c-4.17,0-7.91-2.15-10-5.75-2.11-3.62-2.12-7.95-.04-11.58l62.24-108.66c2.08-3.63,5.82-5.81,10.01-5.82h.04c4.17,0,7.91,2.15,10,5.75l62.98,108.23c2.11,3.62,2.12,7.94.04,11.58-2.08,3.63-5.82,5.81-10.01,5.82l-125.26.43Zm62.24-131.43h-.04c-4.05.01-7.66,2.12-9.68,5.63l-62.24,108.66c-2.01,3.51-2,7.7.04,11.19,2.03,3.48,5.64,5.56,9.67,5.56h.04l125.22-.43c4.05-.01,7.66-2.12,9.68-5.63,2.01-3.51,2-7.7-.04-11.19l-62.98-108.23c-2.03-3.48-5.64-5.56-9.67-5.56Z"></path></g><g><path class="cls-1" d="m541.21,616.65c-4.91,0-9.31-2.53-11.78-6.78-2.48-4.26-2.5-9.36-.05-13.64l68.76-120.06c2.45-4.28,6.86-6.84,11.79-6.86.02,0,.03,0,.05,0,4.91,0,9.31,2.53,11.78,6.78l69.59,119.58c2.48,4.26,2.5,9.36.05,13.64-2.45,4.28-6.86,6.84-11.79,6.86l-138.35.48h-.05Zm68.77-146.27s-.03,0-.05,0c-4.55.02-8.61,2.38-10.87,6.33l-68.76,120.06c-2.26,3.95-2.24,8.65.04,12.58,2.28,3.92,6.34,6.25,10.87,6.25h.05l138.35-.48c4.55-.02,8.61-2.38,10.87-6.33,2.26-3.95,2.24-8.65-.04-12.58l-69.59-119.58c-2.28-3.92-6.34-6.25-10.87-6.25Z"></path><path class="cls-1" d="m541.21,616.86h0c-4.99,0-9.46-2.57-11.97-6.88-2.52-4.33-2.54-9.5-.05-13.85l68.76-120.06c2.49-4.34,6.96-6.95,11.97-6.97h.05c4.99,0,9.46,2.57,11.97,6.88l69.59,119.58c2.52,4.33,2.54,9.5.05,13.85-2.49,4.34-6.96,6.95-11.97,6.97l-138.4.48Zm68.77-147.33h-.05c-4.85.02-9.19,2.54-11.6,6.75l-68.76,120.06c-2.41,4.21-2.4,9.23.05,13.43,2.43,4.18,6.77,6.67,11.6,6.67h.05l138.35-.48c4.85-.02,9.19-2.54,11.6-6.75,2.41-4.21,2.4-9.23-.05-13.43l-69.59-119.58c-2.43-4.18-6.77-6.67-11.6-6.67Zm-68.77,146.27c-4.6,0-8.74-2.38-11.05-6.36-2.33-4-2.34-8.78-.04-12.79l68.76-120.06c2.3-4.01,6.43-6.42,11.06-6.43h.05c4.6,0,8.74,2.38,11.05,6.36l69.59,119.58c2.33,4,2.34,8.78.04,12.79-2.3,4.01-6.43,6.42-11.06,6.43l-138.4.48Zm68.77-145.22h-.04c-4.47.02-8.47,2.34-10.69,6.22l-68.76,120.06c-2.22,3.88-2.21,8.5.04,12.37,2.24,3.85,6.24,6.15,10.69,6.15h.05l138.35-.48c4.47-.02,8.47-2.34,10.69-6.22,2.22-3.88,2.21-8.5-.04-12.37l-69.59-119.58c-2.24-3.85-6.24-6.15-10.69-6.15Z"></path></g><g><path class="cls-1" d="m533.96,624.38c-5.43,0-10.29-2.8-13.02-7.49-2.74-4.71-2.76-10.34-.05-15.07l75.98-132.65c2.71-4.73,7.58-7.56,13.02-7.58.02,0,.04,0,.05,0,5.43,0,10.29,2.8,13.02,7.49l76.89,132.12c2.74,4.71,2.76,10.34.05,15.07-2.71,4.73-7.58,7.56-13.02,7.58l-152.86.53h-.05Zm75.98-161.61s-.03,0-.05,0c-5.02.02-9.52,2.63-12.01,6.99l-75.98,132.65c-2.5,4.36-2.48,9.56.05,13.9,2.52,4.33,7.01,6.91,12.01,6.91h.05l152.86-.53c5.02-.02,9.52-2.63,12.01-6.99,2.5-4.36,2.48-9.56-.05-13.9l-76.89-132.12c-2.52-4.33-7.01-6.91-12.01-6.91Z"></path><path class="cls-1" d="m533.96,624.61h0c-5.51,0-10.45-2.84-13.22-7.61-2.78-4.78-2.8-10.5-.05-15.3l75.98-132.65c2.75-4.8,7.69-7.68,13.23-7.7h.06c5.51,0,10.45,2.84,13.22,7.61l76.89,132.12c2.78,4.78,2.8,10.5.05,15.3-2.75,4.8-7.69,7.68-13.23,7.7l-152.92.53Zm75.98-162.78h-.05c-5.36.02-10.16,2.81-12.82,7.46l-75.98,132.65c-2.67,4.65-2.65,10.2.05,14.83,2.69,4.62,7.48,7.37,12.82,7.37h.05l152.86-.53c5.36-.02,10.16-2.81,12.82-7.46,2.67-4.65,2.65-10.2-.05-14.83l-76.89-132.12c-2.69-4.62-7.48-7.37-12.82-7.37Zm-75.98,161.61c-5.09,0-9.65-2.63-12.21-7.02-2.57-4.42-2.59-9.7-.05-14.13l75.98-132.65c2.54-4.43,7.11-7.09,12.22-7.11h.05c5.09,0,9.65,2.63,12.21,7.02l76.89,132.12c2.57,4.42,2.59,9.7.05,14.13-2.54,4.43-7.11,7.09-12.21,7.11l-152.92.53Zm75.98-160.45h-.05c-4.94.02-9.36,2.59-11.81,6.87l-75.98,132.65c-2.46,4.29-2.44,9.4.05,13.67,2.47,4.25,6.89,6.79,11.81,6.79h.05l152.86-.53c4.94-.02,9.36-2.59,11.81-6.87,2.46-4.29,2.44-9.4-.05-13.66l-76.89-132.12c-2.47-4.25-6.89-6.79-11.81-6.79Z"></path></g><g><path class="cls-1" d="m525.94,632.91c-5.99,0-11.37-3.09-14.39-8.27-3.03-5.2-3.05-11.43-.06-16.65l83.94-146.56c2.99-5.22,8.37-8.35,14.39-8.37.02,0,.04,0,.06,0,5.99,0,11.37,3.09,14.39,8.27l84.95,145.98c3.03,5.2,3.05,11.43.06,16.65-2.99,5.22-8.37,8.35-14.39,8.37l-168.9.58h-.06Zm83.95-178.56s-.04,0-.06,0c-5.55.02-10.51,2.91-13.27,7.72l-83.94,146.56c-2.76,4.82-2.74,10.56.05,15.36,2.78,4.78,7.74,7.63,13.27,7.63h.06l168.9-.58c5.55-.02,10.51-2.91,13.27-7.72,2.76-4.82,2.74-10.56-.05-15.36l-84.95-145.98c-2.78-4.78-7.74-7.63-13.27-7.63Z"></path><path class="cls-1" d="m525.94,633.17h0c-6.09,0-11.55-3.14-14.61-8.4-3.07-5.28-3.1-11.6-.06-16.91l83.94-146.56c3.04-5.3,8.5-8.48,14.61-8.5h.06c6.09,0,11.55,3.14,14.61,8.4l84.95,145.98c3.07,5.28,3.1,11.6.06,16.91-3.04,5.3-8.5,8.48-14.61,8.5l-168.96.58Zm83.95-179.86h-.06c-5.93.02-11.22,3.1-14.17,8.24l-83.94,146.56c-2.94,5.14-2.92,11.27.06,16.39,2.97,5.1,8.26,8.15,14.16,8.15h.06l168.9-.58c5.93-.02,11.22-3.1,14.17-8.24,2.94-5.14,2.92-11.27-.06-16.39l-84.95-145.98c-2.97-5.1-8.26-8.15-14.16-8.15Zm-83.95,178.56c-5.62,0-10.67-2.9-13.49-7.76-2.84-4.88-2.86-10.72-.05-15.61l83.94-146.56c2.81-4.9,7.85-7.83,13.5-7.85h.06c5.62,0,10.67,2.9,13.49,7.76l84.95,145.98c2.84,4.88,2.86,10.72.05,15.61-2.81,4.9-7.85,7.83-13.5,7.85l-168.95.58Zm83.95-177.27h-.05c-5.46.02-10.34,2.86-13.05,7.59l-83.94,146.56c-2.71,4.74-2.69,10.38.05,15.1,2.73,4.7,7.61,7.5,13.05,7.5h.06l168.9-.58c5.46-.02,10.34-2.86,13.05-7.59,2.71-4.74,2.69-10.38-.05-15.1l-84.95-145.98c-2.73-4.7-7.61-7.5-13.05-7.5Z"></path></g><g><path class="cls-1" d="m517.08,642.35c-6.62,0-12.56-3.41-15.89-9.14-3.34-5.75-3.37-12.62-.06-18.39l92.75-161.93c3.31-5.77,9.25-9.23,15.9-9.25.02,0,.04,0,.07,0,6.62,0,12.56,3.41,15.9,9.14l93.86,161.29c3.34,5.75,3.37,12.62.06,18.39-3.31,5.77-9.25,9.23-15.9,9.25l-186.61.64h-.07Zm92.75-197.29s-.04,0-.06,0c-6.13.02-11.62,3.21-14.66,8.53l-92.75,161.93c-3.05,5.32-3.03,11.67.06,16.97,3.07,5.28,8.55,8.43,14.66,8.43h.06l186.61-.64c6.13-.02,11.62-3.21,14.66-8.53,3.05-5.32,3.03-11.67-.06-16.97l-93.86-161.29c-3.07-5.28-8.55-8.43-14.66-8.43Z"></path><path class="cls-1" d="m517.08,642.63h0c-6.72,0-12.76-3.47-16.14-9.28-3.4-5.84-3.42-12.82-.06-18.68l92.75-161.93c3.36-5.86,9.39-9.37,16.14-9.4h.07c6.72,0,12.76,3.47,16.14,9.28l93.86,161.29c3.4,5.84,3.42,12.82.06,18.68-3.36,5.86-9.39,9.37-16.14,9.4l-186.68.64Zm92.75-198.72h-.06c-6.55.02-12.4,3.43-15.65,9.11l-92.75,161.93c-3.25,5.68-3.23,12.45.06,18.11,3.28,5.64,9.13,9,15.65,9h.07l186.61-.64c6.55-.02,12.4-3.43,15.65-9.11,3.25-5.68,3.23-12.45-.06-18.11l-93.86-161.29c-3.28-5.64-9.13-9-15.65-9Zm-92.75,197.29c-6.21,0-11.78-3.21-14.91-8.57-3.14-5.39-3.16-11.84-.06-17.25l92.75-161.93c3.1-5.41,8.67-8.66,14.91-8.68h.06c6.21,0,11.78,3.21,14.91,8.57l93.86,161.29c3.14,5.39,3.16,11.84.06,17.25-3.1,5.41-8.67,8.66-14.91,8.68l-186.67.64Zm92.75-195.86h-.06c-6.03.02-11.42,3.16-14.42,8.39l-92.75,161.93c-3,5.23-2.98,11.47.06,16.68,3.02,5.19,8.41,8.29,14.42,8.29h.06l186.61-.64c6.03-.02,11.42-3.16,14.42-8.39,3-5.23,2.98-11.47-.06-16.68l-93.86-161.29c-3.02-5.19-8.41-8.29-14.42-8.29Z"></path></g><g><path class="cls-1" d="m507.3,652.77c-7.32,0-13.88-3.77-17.56-10.1-3.7-6.35-3.72-13.95-.07-20.32l102.48-178.91c3.65-6.38,10.22-10.2,17.57-10.22.02,0,.05,0,.07,0,7.32,0,13.88,3.77,17.56,10.1l103.7,178.2c3.7,6.35,3.72,13.95.07,20.32-3.65,6.38-10.22,10.2-17.57,10.22l-206.18.71h-.07Zm102.48-217.98s-.04,0-.07,0c-6.78.02-12.83,3.55-16.2,9.43l-102.48,178.91c-3.37,5.88-3.34,12.89.06,18.75,3.4,5.84,9.45,9.32,16.2,9.32h.07l206.18-.71c6.78-.02,12.83-3.55,16.2-9.43,3.37-5.88,3.34-12.89-.06-18.75l-103.7-178.2c-3.4-5.84-9.45-9.32-16.2-9.32Z"></path><path class="cls-1" d="m507.3,653.08h0c-7.43,0-14.1-3.83-17.83-10.26-3.75-6.45-3.78-14.16-.07-20.64l102.48-178.91c3.71-6.47,10.38-10.35,17.84-10.38h.07c7.43,0,14.1,3.83,17.83,10.26l103.7,178.2c3.75,6.45,3.78,14.16.07,20.64-3.71,6.47-10.38,10.36-17.84,10.38l-206.26.71Zm102.48-219.56h-.07c-7.23.02-13.7,3.79-17.29,10.06l-102.48,178.91c-3.6,6.28-3.57,13.76.07,20.01,3.62,6.23,10.09,9.94,17.29,9.94h.07l206.18-.71c7.23-.02,13.7-3.79,17.29-10.06,3.6-6.28,3.57-13.76-.07-20.01l-103.7-178.2c-3.62-6.23-10.09-9.94-17.29-9.94Zm-102.48,217.98c-6.86,0-13.02-3.54-16.47-9.47-3.47-5.96-3.49-13.08-.07-19.06l102.48-178.91c3.43-5.98,9.58-9.56,16.48-9.59h.07c6.86,0,13.02,3.54,16.47,9.47l103.7,178.2c3.47,5.96,3.49,13.08.07,19.06-3.43,5.98-9.58,9.56-16.48,9.59l-206.25.71Zm102.48-216.41h-.07c-6.66.02-12.62,3.49-15.93,9.27l-102.48,178.91c-3.31,5.78-3.29,12.67.06,18.43,3.34,5.74,9.29,9.16,15.93,9.16h.07l206.18-.71c6.66-.02,12.62-3.49,15.93-9.27,3.31-5.78,3.29-12.67-.06-18.43l-103.7-178.2c-3.34-5.74-9.29-9.16-15.93-9.16Z"></path></g><g><path class="cls-1" d="m496.49,664.28c-8.09,0-15.33-4.17-19.4-11.16-4.08-7.02-4.11-15.41-.08-22.45l113.22-197.68c4.03-7.04,11.29-11.27,19.41-11.29.03,0,.05,0,.08,0,8.09,0,15.33,4.17,19.4,11.16l114.58,196.89c4.08,7.02,4.11,15.41.08,22.45-4.03,7.04-11.29,11.27-19.41,11.29l-227.8.78h-.08Zm113.23-240.84s-.05,0-.07,0c-7.49.03-14.18,3.92-17.9,10.42l-113.22,197.68c-3.72,6.5-3.69,14.24.07,20.71,3.75,6.45,10.44,10.29,17.9,10.29h.07l227.8-.78c7.49-.03,14.18-3.92,17.9-10.42,3.72-6.5,3.7-14.24-.07-20.71l-114.58-196.89c-3.75-6.45-10.44-10.29-17.9-10.29Z"></path><path class="cls-1" d="m496.49,664.63h0c-8.21,0-15.57-4.24-19.7-11.33-4.15-7.12-4.18-15.65-.08-22.8l113.22-197.68c4.1-7.15,11.47-11.44,19.71-11.47h.08c8.21,0,15.58,4.24,19.71,11.33l114.58,196.89c4.15,7.13,4.18,15.65.08,22.8-4.1,7.15-11.47,11.44-19.71,11.47l-227.89.78Zm113.23-242.59h-.08c-7.99.03-15.14,4.18-19.11,11.12l-113.22,197.68c-3.97,6.93-3.94,15.2.08,22.11,4,6.88,11.15,10.99,19.1,10.99h.08l227.8-.78c7.99-.03,15.13-4.18,19.11-11.12,3.97-6.93,3.94-15.2-.08-22.11l-114.58-196.89c-4-6.88-11.15-10.99-19.1-10.99Zm-113.23,240.84c-7.58,0-14.39-3.91-18.2-10.47-3.83-6.58-3.86-14.45-.07-21.06l113.22-197.68c3.78-6.61,10.59-10.57,18.2-10.59h.08c7.58,0,14.39,3.91,18.2,10.47l114.58,196.89c3.83,6.58,3.86,14.45.07,21.06-3.78,6.61-10.59,10.57-18.2,10.59l-227.88.78Zm113.23-239.1h-.07c-7.36.03-13.94,3.85-17.6,10.24l-113.22,197.68c-3.66,6.39-3.63,14,.07,20.36,3.69,6.34,10.27,10.12,17.6,10.12h.07l227.8-.78c7.36-.03,13.94-3.85,17.6-10.24,3.66-6.39,3.63-14-.07-20.36l-114.58-196.89c-3.69-6.34-10.27-10.12-17.6-10.12Z"></path></g><g><path class="cls-1" d="m484.54,677c-8.93,0-16.94-4.6-21.44-12.33-4.51-7.75-4.54-17.03-.09-24.81l125.1-218.41c4.46-7.78,12.47-12.45,21.44-12.48.03,0,.06,0,.09,0,8.93,0,16.94,4.6,21.44,12.33l126.6,217.54c4.51,7.75,4.54,17.03.09,24.81-4.46,7.78-12.47,12.45-21.44,12.48l-251.7.87h-.09Zm125.11-266.1s-.05,0-.08,0c-8.27.03-15.67,4.33-19.78,11.51l-125.1,218.41c-4.11,7.18-4.08,15.73.08,22.88,4.15,7.13,11.54,11.37,19.78,11.37h.08l251.7-.87c8.27-.03,15.67-4.33,19.78-11.51,4.11-7.18,4.08-15.73-.08-22.88l-126.6-217.54c-4.15-7.13-11.54-11.37-19.78-11.37Z"></path><path class="cls-1" d="m484.54,677.39h0c-9.07,0-17.21-4.68-21.77-12.52-4.58-7.87-4.61-17.29-.09-25.19l125.1-218.41c4.53-7.9,12.67-12.64,21.78-12.67h.09c9.07,0,17.21,4.68,21.77,12.52l126.6,217.54c4.58,7.87,4.61,17.29.09,25.19-4.53,7.9-12.67,12.64-21.78,12.67l-251.79.87Zm125.11-268.03h-.09c-8.83.03-16.72,4.62-21.11,12.29l-125.1,218.41c-4.39,7.66-4.36,16.79.08,24.42,4.42,7.6,12.31,12.14,21.11,12.14h.09l251.69-.87c8.83-.03,16.72-4.62,21.11-12.29,4.39-7.66,4.36-16.79-.08-24.42l-126.6-217.54c-4.42-7.6-12.31-12.14-21.11-12.14Zm-125.11,266.1c-8.38,0-15.89-4.32-20.11-11.57-4.23-7.27-4.26-15.97-.08-23.27l125.1-218.41c4.18-7.3,11.7-11.68,20.11-11.7h.08c8.38,0,15.89,4.32,20.11,11.57l126.6,217.54c4.23,7.27,4.26,15.97.08,23.27-4.18,7.3-11.7,11.68-20.11,11.7l-251.78.87Zm125.11-264.18h-.08c-8.14.03-15.41,4.26-19.45,11.32l-125.1,218.41c-4.04,7.06-4.01,15.47.08,22.5,4.07,7,11.34,11.18,19.44,11.18h.08l251.69-.87c8.13-.03,15.4-4.26,19.45-11.32,4.04-7.06,4.01-15.47-.08-22.5l-126.6-217.54c-4.08-7-11.34-11.18-19.44-11.18Z"></path></g><g><path class="cls-1" d="m471.34,691.06c-9.87,0-18.72-5.09-23.69-13.62-4.98-8.56-5.02-18.81-.09-27.41l138.22-241.31c4.93-8.6,13.78-13.75,23.69-13.79.03,0,.07,0,.1,0,9.87,0,18.72,5.09,23.69,13.62l139.88,240.36c4.98,8.57,5.02,18.81.09,27.41-4.93,8.6-13.78,13.75-23.69,13.79l-278.09.96h-.1Zm138.23-294.01s-.06,0-.09,0c-9.14.03-17.31,4.79-21.85,12.72l-138.22,241.31c-4.54,7.93-4.51,17.38.09,25.29,4.58,7.87,12.75,12.57,21.85,12.57h.09l278.09-.96c9.14-.03,17.31-4.79,21.85-12.72,4.54-7.93,4.51-17.38-.09-25.28l-139.88-240.36c-4.58-7.87-12.75-12.57-21.85-12.57Z"></path><path class="cls-1" d="m471.34,691.48h0c-10.02,0-19.01-5.17-24.05-13.84-5.06-8.7-5.1-19.1-.1-27.84l138.22-241.31c5-8.73,14-13.97,24.06-14h.1c10.02,0,19.01,5.17,24.06,13.84l139.88,240.36c5.06,8.7,5.1,19.1.1,27.84-5,8.73-14,13.97-24.06,14l-278.19.96Zm138.23-296.14h-.1c-9.76.03-18.48,5.11-23.33,13.57l-138.22,241.31c-4.85,8.47-4.81,18.55.09,26.99,4.89,8.4,13.61,13.41,23.32,13.41h.1l278.09-.96c9.76-.03,18.48-5.11,23.32-13.57,4.85-8.47,4.81-18.55-.09-26.99l-139.88-240.36c-4.89-8.4-13.61-13.41-23.32-13.41Zm-138.23,294.01c-9.26,0-17.56-4.78-22.22-12.78-4.68-8.03-4.71-17.65-.09-25.71l138.22-241.31c4.62-8.07,12.93-12.9,22.22-12.93h.09c9.26,0,17.56,4.78,22.22,12.78l139.88,240.36c4.68,8.03,4.71,17.64.09,25.71-4.62,8.07-12.93,12.9-22.22,12.93l-278.19.96Zm138.23-291.88h-.09c-8.99.03-17.02,4.71-21.49,12.5l-138.22,241.31c-4.47,7.8-4.43,17.09.09,24.86,4.5,7.74,12.53,12.36,21.48,12.36h.09l278.09-.96c8.99-.03,17.02-4.71,21.49-12.5,4.47-7.8,4.44-17.09-.09-24.86l-139.88-240.36c-4.5-7.74-12.53-12.36-21.48-12.36Z"></path></g><g><path class="cls-1" d="m456.76,706.58c-10.91,0-20.68-5.62-26.17-15.05-5.51-9.46-5.55-20.79-.1-30.29l152.71-266.62c5.44-9.5,15.23-15.2,26.18-15.23.04,0,.07,0,.11,0,10.91,0,20.68,5.62,26.17,15.05l154.55,265.56c5.51,9.46,5.55,20.79.1,30.29-5.44,9.5-15.23,15.2-26.18,15.23l-307.26,1.06h-.11Zm152.72-324.85s-.07,0-.1,0c-10.1.03-19.13,5.29-24.15,14.05l-152.71,266.62c-5.02,8.76-4.98,19.21.1,27.94,5.06,8.7,14.08,13.89,24.14,13.89h.1l307.26-1.06c10.1-.03,19.13-5.29,24.15-14.05,5.02-8.76,4.98-19.21-.1-27.94l-154.55-265.57c-5.06-8.7-14.08-13.89-24.14-13.89Z"></path><path class="cls-1" d="m456.76,707.05h0c-11.07,0-21.01-5.71-26.58-15.29-5.59-9.61-5.63-21.11-.11-30.76l152.71-266.62c5.53-9.65,15.46-15.43,26.58-15.47h.11c11.07,0,21.01,5.71,26.58,15.29l154.55,265.56c5.59,9.61,5.63,21.11.11,30.76-5.53,9.65-15.46,15.43-26.58,15.47l-307.37,1.06Zm152.72-327.2h-.11c-10.78.04-20.41,5.64-25.77,15l-152.71,266.62c-5.36,9.35-5.32,20.5.1,29.82,5.4,9.28,15.03,14.82,25.77,14.82h.11l307.26-1.06c10.78-.04,20.41-5.64,25.77-15,5.36-9.35,5.32-20.5-.1-29.82l-154.55-265.56c-5.4-9.28-15.03-14.82-25.77-14.82Zm-152.72,324.85c-10.23,0-19.4-5.28-24.55-14.12-5.17-8.88-5.2-19.5-.1-28.41l152.71-266.62c5.1-8.91,14.28-14.25,24.55-14.29h.1c10.23,0,19.4,5.28,24.55,14.12l154.55,265.57c5.17,8.88,5.2,19.49.1,28.41-5.1,8.91-14.28,14.25-24.55,14.29l-307.36,1.06Zm152.72-322.5h-.1c-9.93.03-18.81,5.2-23.74,13.82l-152.71,266.62c-4.94,8.62-4.9,18.88.09,27.47,4.97,8.55,13.85,13.65,23.74,13.65h.1l307.26-1.06c9.93-.03,18.81-5.2,23.74-13.82,4.94-8.62,4.9-18.88-.09-27.47l-154.55-265.57c-4.97-8.55-13.85-13.65-23.74-13.65Z"></path></g><g><path class="cls-1" d="m440.65,723.74c-12.05,0-22.85-6.21-28.92-16.63-6.08-10.46-6.13-22.96-.12-33.46l168.73-294.59c6.01-10.5,16.82-16.79,28.92-16.83.04,0,.08,0,.12,0,12.05,0,22.85,6.21,28.92,16.63l170.75,293.42c6.08,10.46,6.13,22.96.12,33.46-6.01,10.5-16.82,16.79-28.92,16.83l-339.48,1.17h-.12Zm168.74-358.91s-.07,0-.11,0c-11.16.04-21.13,5.84-26.68,15.53l-168.73,294.58c-5.55,9.68-5.51,21.22.11,30.87,5.59,9.61,15.56,15.34,26.67,15.34h.11l339.48-1.17c11.16-.04,21.13-5.84,26.68-15.53,5.55-9.68,5.51-21.22-.11-30.87l-170.75-293.42c-5.59-9.61-15.56-15.34-26.67-15.34Z"></path><path class="cls-1" d="m440.65,724.26h0c-12.23,0-23.21-6.31-29.36-16.89-6.18-10.62-6.22-23.32-.12-33.98l168.73-294.59c6.11-10.66,17.09-17.05,29.37-17.09h.12c12.23,0,23.21,6.31,29.37,16.89l170.75,293.42c6.18,10.62,6.22,23.32.12,33.98-6.11,10.66-17.09,17.05-29.37,17.09l-339.61,1.17Zm168.74-361.51h-.12c-11.91.04-22.56,6.24-28.48,16.57l-168.73,294.59c-5.92,10.33-5.88,22.65.11,32.94,5.97,10.25,16.61,16.37,28.47,16.37h.12l339.48-1.17c11.91-.04,22.55-6.24,28.47-16.57,5.92-10.33,5.88-22.65-.11-32.94l-170.75-293.42c-5.97-10.25-16.61-16.37-28.47-16.37Zm-168.74,358.91c-11.3,0-21.44-5.83-27.12-15.6-5.71-9.81-5.75-21.54-.11-31.39l168.73-294.58c5.64-9.85,15.78-15.75,27.13-15.79h.11c11.3,0,21.44,5.83,27.12,15.6l170.75,293.42c5.71,9.81,5.75,21.54.11,31.39-5.64,9.85-15.78,15.75-27.13,15.79l-339.6,1.17Zm168.74-356.32h-.11c-10.97.04-20.78,5.74-26.23,15.26l-168.73,294.58c-5.45,9.52-5.41,20.86.1,30.35,5.5,9.44,15.3,15.08,26.22,15.08h.11l339.48-1.17c10.97-.04,20.78-5.74,26.23-15.26,5.45-9.52,5.41-20.86-.1-30.35l-170.75-293.42c-5.5-9.44-15.3-15.08-26.22-15.08Z"></path></g><g><path class="cls-1" d="m422.84,742.7c-13.31,0-25.25-6.86-31.95-18.38-6.72-11.55-6.77-25.37-.13-36.97l186.43-325.48c6.64-11.6,18.59-18.55,31.96-18.6.04,0,.09,0,.13,0,13.31,0,25.25,6.86,31.95,18.38l188.66,324.19c6.72,11.55,6.77,25.37.13,36.97-6.64,11.6-18.59,18.55-31.96,18.6l-375.09,1.29h-.13Zm186.44-396.56s-.08,0-.12,0c-12.33.04-23.35,6.45-29.48,17.15l-186.43,325.48c-6.13,10.7-6.08,23.45.12,34.1,6.18,10.62,17.19,16.95,29.47,16.95h.12l375.09-1.29c12.33-.04,23.35-6.45,29.48-17.15,6.13-10.7,6.08-23.45-.12-34.1l-188.66-324.19c-6.18-10.62-17.19-16.95-29.47-16.95Z"></path><path class="cls-1" d="m422.84,743.27h0c-13.52,0-25.64-6.98-32.44-18.66-6.83-11.73-6.88-25.77-.13-37.55l186.43-325.48c6.75-11.78,18.88-18.84,32.45-18.88h.14c13.52,0,25.65,6.98,32.45,18.66l188.66,324.19c6.83,11.73,6.88,25.77.13,37.55-6.75,11.78-18.88,18.84-32.45,18.88l-375.22,1.29Zm186.44-399.42h-.13c-13.16.05-24.92,6.89-31.46,18.31l-186.43,325.48c-6.54,11.42-6.49,25.03.13,36.4,6.59,11.33,18.35,18.09,31.45,18.09h.13l375.08-1.29c13.16-.05,24.92-6.89,31.46-18.31,6.54-11.42,6.49-25.03-.12-36.4l-188.66-324.19c-6.59-11.33-18.35-18.09-31.45-18.09Zm-186.44,396.56c-12.48,0-23.69-6.44-29.97-17.24-6.31-10.84-6.35-23.8-.12-34.68l186.43-325.48c6.23-10.88,17.44-17.4,29.97-17.44h.12c12.48,0,23.69,6.44,29.97,17.24l188.66,324.19c6.31,10.84,6.35,23.8.12,34.68-6.23,10.88-17.44,17.4-29.97,17.44l-375.21,1.29Zm186.44-393.69h-.12c-12.12.04-22.96,6.35-28.98,16.87l-186.43,325.48c-6.02,10.52-5.98,23.05.12,33.53,6.07,10.44,16.9,16.67,28.98,16.67h.12l375.08-1.29c12.12-.04,22.96-6.35,28.98-16.87,6.03-10.52,5.98-23.05-.12-33.53l-188.66-324.19c-6.07-10.44-16.9-16.67-28.97-16.67Z"></path></g><g><path class="cls-1" d="m403.17,763.64c-14.71,0-27.9-7.58-35.3-20.3-7.43-12.76-7.48-28.03-.14-40.85l205.98-359.62c7.34-12.81,20.54-20.5,35.31-20.55.05,0,.1,0,.15,0,14.71,0,27.9,7.58,35.3,20.3l208.45,358.19c7.43,12.76,7.48,28.03.14,40.85-7.34,12.82-20.54,20.5-35.31,20.55l-414.43,1.43h-.15Zm205.99-438.15s-.09,0-.14,0c-13.62.05-25.8,7.13-32.57,18.95l-205.98,359.62c-6.77,11.82-6.72,25.91.13,37.68,6.83,11.73,18.99,18.73,32.56,18.73h.14l414.43-1.43c13.62-.05,25.8-7.13,32.57-18.95,6.77-11.82,6.72-25.91-.13-37.68l-208.45-358.19c-6.83-11.73-18.99-18.73-32.56-18.73Z"></path><path class="cls-1" d="m403.17,764.28h0c-14.93,0-28.33-7.71-35.85-20.62-7.54-12.96-7.6-28.47-.14-41.48l205.98-359.62c7.45-13.01,20.86-20.81,35.85-20.87h.15c14.93,0,28.34,7.71,35.85,20.62l208.45,358.19c7.54,12.96,7.6,28.47.14,41.48-7.45,13.01-20.86,20.81-35.85,20.87l-414.58,1.43Zm205.99-441.32h-.14c-14.54.05-27.53,7.61-34.76,20.23l-205.98,359.62c-7.23,12.62-7.17,27.65.14,40.22,7.28,12.52,20.28,19.99,34.75,19.99h.15l414.42-1.43c14.54-.05,27.53-7.61,34.76-20.23,7.23-12.62,7.17-27.65-.14-40.22l-208.45-358.19c-7.28-12.52-20.28-19.99-34.75-19.99Zm-205.99,438.15c-13.79,0-26.17-7.12-33.11-19.04-6.97-11.97-7.02-26.3-.13-38.31l205.98-359.62c6.88-12.02,19.26-19.22,33.12-19.27h.14c13.79,0,26.17,7.12,33.11,19.04l208.45,358.19c6.97,11.97,7.02,26.29.13,38.31-6.88,12.02-19.26,19.22-33.12,19.27l-414.56,1.43Zm205.99-434.98h-.13c-13.4.05-25.37,7.01-32.02,18.63l-205.98,359.62c-6.66,11.62-6.61,25.47.13,37.05,6.71,11.53,18.68,18.41,32.01,18.41h.14l414.42-1.43c13.39-.05,25.36-7.01,32.02-18.63,6.66-11.62,6.61-25.47-.13-37.05l-208.45-358.19c-6.71-11.53-18.68-18.41-32.01-18.41Z"></path></g><g><path class="cls-1" d="m381.44,786.79c-16.25,0-30.82-8.38-39-22.43-8.21-14.1-8.27-30.97-.16-45.13l227.58-397.33c8.11-14.16,22.69-22.65,39.01-22.7.05,0,.11,0,.16,0,16.25,0,30.82,8.38,39,22.43l230.31,395.75c8.21,14.1,8.26,30.97.16,45.13-8.11,14.16-22.69,22.65-39.01,22.7l-457.89,1.58h-.16Zm227.59-484.1c-.05,0-.1,0-.15,0-15.05.05-28.5,7.88-35.98,20.94l-227.58,397.33c-7.48,13.06-7.43,28.62.14,41.63,7.54,12.97,20.99,20.69,35.98,20.69h.15l457.89-1.58c15.05-.05,28.5-7.88,35.98-20.94,7.48-13.06,7.43-28.62-.14-41.63l-230.31-395.76c-7.54-12.97-20.99-20.69-35.98-20.69Z"></path><path class="cls-1" d="m381.44,787.49h0c-16.5,0-31.31-8.52-39.61-22.78-8.33-14.32-8.39-31.45-.16-45.83l227.58-397.33c8.24-14.38,23.05-23,39.62-23.05h.16c16.5,0,31.31,8.52,39.61,22.78l230.31,395.75c8.33,14.32,8.39,31.46.16,45.83-8.24,14.38-23.04,23-39.61,23.05l-458.05,1.58Zm227.59-487.6h-.16c-16.07.06-30.42,8.41-38.41,22.35l-227.58,397.33c-7.98,13.94-7.93,30.55.15,44.43,8.05,13.83,22.4,22.09,38.4,22.08h.16l457.89-1.58c16.06-.06,30.42-8.41,38.4-22.35,7.98-13.94,7.93-30.55-.15-44.43l-230.31-395.75c-8.05-13.83-22.4-22.08-38.4-22.08Zm-227.59,484.1c-15.24,0-28.92-7.87-36.58-21.04-7.7-13.23-7.75-29.05-.15-42.33l227.58-397.33c7.61-13.28,21.28-21.24,36.59-21.29h.15c15.24,0,28.91,7.87,36.58,21.04l230.31,395.76c7.7,13.23,7.75,29.05.15,42.33-7.61,13.28-21.28,21.24-36.59,21.29l-458.04,1.58Zm227.59-480.6h-.15c-14.8.05-28.03,7.75-35.38,20.59l-227.58,397.33c-7.35,12.84-7.3,28.14.14,40.93,7.41,12.74,20.64,20.34,35.37,20.34h.15l457.89-1.58c14.8-.05,28.02-7.75,35.38-20.59,7.36-12.84,7.3-28.14-.14-40.93l-230.31-395.76c-7.41-12.74-20.64-20.34-35.37-20.34Z"></path></g><g><path class="cls-1" d="m357.43,812.36c-17.96,0-34.05-9.25-43.09-24.79-9.07-15.58-9.13-34.22-.17-49.87l251.45-439c8.96-15.64,25.07-25.02,43.1-25.08.06,0,.12,0,.18,0,17.96,0,34.06,9.26,43.09,24.79l254.46,437.26c9.07,15.58,9.13,34.22.17,49.87-8.96,15.64-25.07,25.02-43.1,25.08l-505.91,1.74h-.18Zm251.46-534.87c-.06,0-.11,0-.17,0-16.63.06-31.49,8.71-39.76,23.14l-251.45,439c-8.27,14.43-8.21,31.63.16,46,8.34,14.32,23.19,22.86,39.75,22.86h.17l505.91-1.74c16.63-.06,31.49-8.71,39.76-23.14,8.27-14.43,8.21-31.63-.16-46l-254.46-437.26c-8.34-14.32-23.19-22.86-39.75-22.86Z"></path><path class="cls-1" d="m357.43,813.13h0c-18.23,0-34.59-9.41-43.76-25.17-9.21-15.82-9.27-34.75-.17-50.64l251.45-439c9.1-15.89,25.46-25.41,43.77-25.47h.18c18.23,0,34.59,9.41,43.76,25.17l254.46,437.26c9.21,15.82,9.27,34.75.17,50.64-9.1,15.89-25.46,25.41-43.77,25.47l-506.09,1.74Zm251.46-538.74h-.17c-17.75.06-33.61,9.29-42.43,24.69l-251.45,439c-8.82,15.4-8.76,33.75.17,49.09,8.89,15.28,24.75,24.4,42.42,24.4h.18l505.91-1.74c17.75-.06,33.61-9.29,42.43-24.69,8.82-15.4,8.76-33.75-.17-49.09l-254.46-437.26c-8.89-15.28-24.75-24.4-42.42-24.4Zm-251.46,534.87c-16.84,0-31.95-8.69-40.42-23.25-8.51-14.61-8.57-32.1-.16-46.77l251.45-439c8.4-14.67,23.52-23.47,40.43-23.53h.17c16.84,0,31.95,8.69,40.42,23.25l254.46,437.26c8.51,14.61,8.57,32.1.16,46.77-8.4,14.67-23.52,23.47-40.43,23.53l-506.08,1.74Zm251.46-531h-.16c-16.35.06-30.97,8.56-39.09,22.75l-251.45,439c-8.13,14.19-8.07,31.09.16,45.23,8.19,14.07,22.8,22.48,39.08,22.48h.17l505.91-1.74c16.35-.06,30.96-8.56,39.09-22.75,8.13-14.19,8.07-31.09-.16-45.22l-254.46-437.26c-8.19-14.08-22.8-22.48-39.08-22.48Z"></path></g><g><path class="cls-1" d="m330.9,840.61c-19.84,0-37.63-10.23-47.61-27.38-10.02-17.22-10.09-37.81-.19-55.1l277.82-485.04c9.9-17.28,27.7-27.64,47.62-27.71.07,0,.13,0,.2,0,19.84,0,37.63,10.23,47.61,27.38l281.15,483.12c10.02,17.22,10.09,37.81.19,55.1-9.9,17.28-27.7,27.64-47.62,27.71l-558.97,1.92h-.2ZM608.74,249.64c-.06,0-.12,0-.18,0-18.37.06-34.8,9.62-43.93,25.56l-277.82,485.04c-9.13,15.94-9.07,34.94.17,50.82,9.21,15.83,25.62,25.26,43.92,25.26h.18l558.97-1.92c18.37-.06,34.79-9.62,43.93-25.56,9.13-15.94,9.07-34.94-.18-50.82l-281.15-483.12c-9.21-15.83-25.62-25.26-43.92-25.26Z"></path><path class="cls-1" d="m330.9,841.46h0c-20.14,0-38.22-10.4-48.35-27.81-10.17-17.48-10.25-38.4-.19-55.95l277.82-485.04c10.05-17.55,28.13-28.07,48.36-28.14h.2c20.14,0,38.22,10.4,48.35,27.81l281.15,483.12c10.17,17.48,10.25,38.4.19,55.95-10.05,17.55-28.13,28.07-48.36,28.14l-559.17,1.92ZM608.74,246.22h-.19c-19.61.07-37.14,10.27-46.89,27.28l-277.82,485.04c-9.75,17.02-9.68,37.29.19,54.24,9.82,16.88,27.35,26.96,46.87,26.96h.2l558.97-1.92c19.61-.07,37.14-10.27,46.88-27.28,9.75-17.02,9.68-37.29-.19-54.24l-281.15-483.12c-9.82-16.88-27.35-26.96-46.87-26.96Zm-277.84,590.96c-18.6,0-35.3-9.6-44.66-25.69-9.4-16.15-9.46-35.47-.18-51.68l277.82-485.04c9.29-16.21,25.98-25.93,44.67-25.99h.19c18.6,0,35.3,9.6,44.66,25.68l281.15,483.12c9.4,16.15,9.46,35.47.18,51.68-9.29,16.21-25.98,25.93-44.67,25.99l-559.16,1.92ZM608.74,250.5h-.18c-18.07.06-34.21,9.46-43.19,25.13l-277.82,485.04c-8.98,15.68-8.91,34.35.17,49.97,9.05,15.55,25.19,24.84,43.18,24.84h.18l558.97-1.92c18.07-.06,34.21-9.46,43.19-25.13,8.98-15.68,8.91-34.35-.17-49.97l-281.15-483.12c-9.05-15.55-25.19-24.84-43.18-24.84Z"></path></g><g><path class="cls-1" d="m301.59,871.82c-21.92,0-41.57-11.3-52.6-30.26-11.07-19.02-11.15-41.78-.21-60.87L555.73,244.77c10.94-19.1,30.61-30.54,52.62-30.62.07,0,.15,0,.22,0,21.92,0,41.57,11.3,52.61,30.26l310.64,533.79c11.07,19.02,11.15,41.78.21,60.88-10.94,19.1-30.61,30.54-52.61,30.62l-617.59,2.13h-.22ZM608.56,218.88c-.07,0-.13,0-.2,0-20.3.07-38.44,10.63-48.53,28.24L252.87,783.03c-10.09,17.62-10.02,38.61.19,56.15,10.18,17.49,28.31,27.91,48.52,27.91h.2l617.59-2.13c20.3-.07,38.44-10.63,48.53-28.24,10.09-17.62,10.02-38.61-.19-56.15L657.09,246.79c-10.18-17.49-28.31-27.91-48.52-27.91Z"></path><path class="cls-1" d="m301.59,872.76h0c-22.25,0-42.22-11.49-53.42-30.73-11.24-19.32-11.32-42.43-.21-61.82L554.91,244.3c11.11-19.39,31.08-31.02,53.43-31.09h.22c22.25,0,42.23,11.49,53.42,30.73l310.64,533.79c11.24,19.32,11.32,42.43.21,61.82-11.11,19.39-31.08,31.02-53.43,31.09l-617.82,2.13ZM608.56,215.1h-.21c-21.67.07-41.03,11.34-51.8,30.14L249.59,781.16c-10.77,18.8-10.69,41.2.21,59.93,10.85,18.65,30.22,29.79,51.79,29.79h.22l617.59-2.13c21.67-.07,41.03-11.34,51.8-30.14,10.77-18.8,10.69-41.2-.21-59.93L660.35,244.89c-10.86-18.65-30.22-29.79-51.79-29.79Zm-306.97,652.94c-20.55,0-39-10.61-49.34-28.38-10.38-17.84-10.46-39.19-.2-57.1L559.01,246.65c10.26-17.91,28.71-28.65,49.35-28.72h.21c20.55,0,39,10.61,49.34,28.38l310.64,533.79c10.38,17.84,10.46,39.18.2,57.1-10.26,17.91-28.71,28.65-49.35,28.72l-617.8,2.13ZM608.56,219.82h-.2c-19.96.07-37.8,10.45-47.72,27.77L253.69,783.5c-9.92,17.32-9.85,37.96.19,55.21,10,17.18,27.83,27.44,47.71,27.44h.2l617.59-2.13c19.96-.07,37.8-10.45,47.72-27.77,9.92-17.32,9.85-37.96-.19-55.21L656.27,247.26c-10-17.18-27.83-27.44-47.71-27.44Z"></path></g><g><path class="cls-1" d="m269.2,906.31c-24.22,0-45.93-12.48-58.12-33.43-12.23-21.02-12.32-46.16-.23-67.26L549.99,213.5c12.09-21.1,33.82-33.75,58.13-33.83.08,0,.16,0,.24,0,24.22,0,45.93,12.48,58.12,33.43l343.21,589.77c12.23,21.02,12.32,46.16.23,67.26-12.09,21.1-33.82,33.75-58.13,33.83l-682.36,2.35h-.24ZM608.37,184.89c-.08,0-.15,0-.22,0-22.43.08-42.48,11.74-53.62,31.21L215.37,808.21c-11.15,19.46-11.07,42.66.21,62.04,11.24,19.32,31.27,30.84,53.61,30.84h.22l682.36-2.35c22.43-.08,42.48-11.74,53.62-31.21,11.15-19.46,11.07-42.66-.21-62.04L661.98,215.72c-11.24-19.32-31.27-30.84-53.61-30.84Z"></path><path class="cls-1" d="m269.2,907.35h0c-24.59,0-46.65-12.69-59.02-33.95-12.42-21.34-12.51-46.88-.24-68.3L549.09,212.98c12.27-21.43,34.34-34.27,59.04-34.36h.25c24.59,0,46.65,12.69,59.03,33.95l343.21,589.77c12.42,21.34,12.51,46.88.24,68.3-12.27,21.43-34.34,34.27-59.03,34.36l-682.61,2.35ZM608.37,180.71h-.24c-23.94.08-45.34,12.53-57.24,33.31L211.75,806.14c-11.9,20.77-11.81,45.53.23,66.22,11.99,20.61,33.38,32.91,57.22,32.91h.24l682.36-2.35c23.94-.08,45.33-12.53,57.23-33.31,11.9-20.77,11.81-45.53-.23-66.22L665.59,213.62c-11.99-20.61-33.38-32.91-57.22-32.91Zm-339.17,721.42c-22.71,0-43.09-11.72-54.52-31.36-11.47-19.71-11.55-43.3-.22-63.09L553.62,215.57c11.34-19.79,31.72-31.65,54.53-31.73h.23c22.71,0,43.09,11.72,54.52,31.35l343.21,589.77c11.47,19.71,11.55,43.29.22,63.08-11.34,19.79-31.72,31.65-54.53,31.73l-682.59,2.35ZM608.37,185.93h-.22c-22.06.08-41.77,11.55-52.73,30.68L216.28,808.73c-10.96,19.14-10.88,41.94.21,61,11.05,18.98,30.75,30.32,52.71,30.32h.22l682.36-2.35c22.05-.08,41.76-11.55,52.72-30.68,10.96-19.14,10.88-41.94-.21-61L661.08,216.25c-11.05-18.98-30.75-30.32-52.71-30.32Z"></path></g><g><path class="cls-1" d="m233.42,944.41c-26.76,0-50.75-13.79-64.22-36.94-13.51-23.22-13.61-51-.26-74.31L543.66,178.94c13.35-23.31,37.36-37.29,64.23-37.38.09,0,.18,0,.27,0,26.76,0,50.75,13.79,64.22,36.94l379.21,651.62c13.51,23.22,13.61,51,.26,74.31-13.35,23.31-37.36,37.29-64.23,37.38l-753.93,2.6h-.27ZM608.16,147.33c-.08,0-.16,0-.25,0-24.78.09-46.93,12.97-59.25,34.48L173.95,836.02c-12.32,21.5-12.23,47.13.24,68.55,12.42,21.35,34.55,34.07,59.24,34.07h.25l753.93-2.6c24.78-.09,46.93-12.97,59.25-34.48,12.32-21.5,12.23-47.13-.24-68.55L667.39,181.4c-12.42-21.35-34.55-34.07-59.24-34.07Z"></path><path class="cls-1" d="m233.42,945.56h0c-27.17,0-51.55-14.02-65.21-37.51-13.72-23.58-13.82-51.79-.26-75.47L542.66,178.37c13.56-23.67,37.94-37.86,65.23-37.96h.27c27.17,0,51.55,14.02,65.22,37.51l379.21,651.62c13.72,23.58,13.82,51.79.26,75.47-13.56,23.67-37.94,37.87-65.23,37.96l-754.2,2.6ZM608.16,142.72h-.26c-26.45.09-50.09,13.85-63.24,36.8L169.94,833.73c-13.15,22.95-13.05,50.3.25,73.16,13.25,22.77,36.89,36.36,63.22,36.36h.27l753.92-2.6c26.45-.09,50.09-13.85,63.23-36.8,13.15-22.95,13.05-50.3-.25-73.16L671.38,179.08c-13.25-22.77-36.89-36.36-63.22-36.36ZM233.42,939.8c-25.09,0-47.61-12.95-60.23-34.64-12.67-21.78-12.76-47.84-.24-69.7L547.66,181.24c12.52-21.87,35.05-34.97,60.24-35.06h.25c25.09,0,47.61,12.95,60.23,34.64l379.21,651.62c12.68,21.78,12.77,47.83.24,69.7-12.52,21.87-35.05,34.97-60.24,35.06l-754.18,2.6ZM608.16,148.48h-.24c-24.37.08-46.15,12.76-58.26,33.9L174.95,836.6c-12.11,21.14-12.02,46.34.23,67.4,12.21,20.97,33.98,33.5,58.24,33.5h.25l753.92-2.6c24.37-.08,46.14-12.76,58.25-33.9,12.11-21.14,12.02-46.34-.23-67.39L666.4,181.98c-12.21-20.98-33.98-33.5-58.24-33.5Z"></path></g><g><path class="cls-1" d="m193.88,986.51c-29.57,0-56.07-15.24-70.95-40.81-14.93-25.65-15.04-56.35-.28-82.11L536.66,140.76c14.75-25.76,41.28-41.2,70.97-41.3.1,0,.2,0,.3,0,29.57,0,56.07,15.24,70.95,40.81l418.98,719.96c14.93,25.66,15.04,56.35.28,82.11-14.75,25.76-41.28,41.2-70.97,41.3l-833,2.87h-.3ZM607.92,105.83c-.09,0-.18,0-.27,0-27.38.09-51.85,14.34-65.46,38.09L128.17,866.76c-13.61,23.76-13.51,52.07.26,75.74,13.73,23.59,38.18,37.64,65.45,37.64h.27l833-2.87c27.38-.09,51.85-14.34,65.46-38.1,13.61-23.76,13.51-52.07-.26-75.74L673.37,143.48c-13.73-23.59-38.18-37.64-65.45-37.64Z"></path><path class="cls-1" d="m193.88,987.78h0c-30.02,0-56.95-15.49-72.05-41.44-15.16-26.05-15.27-57.22-.29-83.38L535.56,140.13c14.98-26.16,41.92-41.84,72.07-41.94h.3c30.02,0,56.95,15.49,72.06,41.44l418.98,719.96c15.16,26.05,15.27,57.22.29,83.38-14.98,26.16-41.92,41.84-72.07,41.94l-833.3,2.87ZM607.92,100.74h-.29c-29.23.1-55.35,15.3-69.87,40.66L123.75,864.23c-14.52,25.36-14.42,55.58.28,80.83,14.64,25.16,40.75,40.18,69.85,40.18h.3l832.99-2.87c29.22-.1,55.34-15.3,69.87-40.66,14.52-25.36,14.42-55.58-.28-80.83L677.78,140.91c-14.64-25.16-40.75-40.18-69.85-40.18ZM193.88,981.41c-27.72,0-52.6-14.31-66.55-38.28-14-24.06-14.1-52.85-.26-77.01L541.08,143.3c13.84-24.16,38.72-38.64,66.56-38.74h.28c27.72,0,52.6,14.31,66.55,38.28l418.98,719.96c14,24.06,14.1,52.85.27,77.01-13.84,24.16-38.72,38.64-66.56,38.74l-833.27,2.87ZM607.92,107.11h-.26c-26.93.09-50.99,14.09-64.37,37.45L129.28,867.39c-13.38,23.36-13.28,51.2.26,74.46,13.49,23.17,37.54,37.01,64.35,37.01h.27l832.99-2.87c26.92-.09,50.98-14.1,64.36-37.45,13.38-23.36,13.29-51.2-.26-74.46L672.27,144.12c-13.49-23.17-37.54-37.01-64.35-37.01Z"></path></g><g><path class="cls-1" d="m150.2,1033.02c-32.67,0-61.95-16.84-78.39-45.09-16.5-28.35-16.61-62.26-.31-90.72L528.93,98.58c16.3-28.46,45.61-45.52,78.41-45.63.11,0,.22,0,.33,0,32.67,0,61.95,16.84,78.4,45.09l462.92,795.47c16.5,28.35,16.61,62.26.31,90.72-16.3,28.46-45.61,45.52-78.41,45.63l-920.36,3.17h-.33ZM607.66,59.99c-.1,0-.2,0-.3,0-30.25.1-57.29,15.84-72.33,42.09L77.6,900.71c-15.04,26.25-14.93,57.53.29,83.68,15.17,26.06,42.18,41.59,72.31,41.59h.3l920.36-3.17c30.25-.1,57.29-15.84,72.33-42.09,15.04-26.25,14.93-57.53-.29-83.68L679.98,101.58c-15.17-26.06-42.18-41.59-72.31-41.59Z"></path><path class="cls-1" d="m150.2,1034.43h0c-33.16,0-62.92-17.12-79.61-45.79-16.75-28.79-16.87-63.22-.32-92.13L527.71,97.88c16.55-28.9,46.32-46.22,79.63-46.34h.33c33.16,0,62.93,17.12,79.61,45.79l462.92,795.47c16.75,28.79,16.87,63.23.32,92.13-16.55,28.9-46.32,46.22-79.63,46.34l-920.69,3.17ZM607.66,54.36h-.32c-32.29.11-61.15,16.9-77.2,44.92L72.71,897.92c-16.05,28.02-15.93,61.4.31,89.31,16.18,27.8,45.03,44.39,77.18,44.39h.33l920.35-3.17c32.29-.11,61.14-16.9,77.19-44.92,16.05-28.02,15.93-61.4-.31-89.31L684.84,98.75c-16.18-27.8-45.03-44.39-77.18-44.39Zm-457.46,973.04c-30.63,0-58.12-15.81-73.53-42.29-15.47-26.59-15.58-58.4-.29-85.09L533.81,101.38c15.29-26.69,42.78-42.69,73.54-42.8h.31c30.63,0,58.12,15.81,73.53,42.29l462.92,795.47c15.47,26.59,15.58,58.39.29,85.09-15.29,26.69-42.78,42.69-73.54,42.8l-920.66,3.17ZM607.66,61.39h-.29c-29.75.1-56.33,15.57-71.12,41.38L78.82,901.41c-14.78,25.81-14.68,56.57.28,82.27,14.9,25.6,41.48,40.89,71.1,40.89h.3l920.35-3.17c29.74-.1,56.33-15.57,71.11-41.38,14.78-25.81,14.68-56.57-.28-82.27L678.76,102.29c-14.9-25.61-41.48-40.89-71.1-40.89Z"></path></g><g><path class="cls-1" d="m101.94,1084.42c-36.09,0-68.45-18.6-86.62-49.82-18.23-31.32-18.36-68.79-.35-100.23L520.38,51.97c18.01-31.44,50.4-50.29,86.63-50.42.12,0,.24,0,.36,0,36.09,0,68.45,18.6,86.62,49.82l511.47,878.89c18.23,31.32,18.35,68.79.34,100.23-18.01,31.44-50.4,50.29-86.63,50.42l-1016.88,3.5h-.36ZM607.38,9.33c-.11,0-.22,0-.33,0-33.43.11-63.3,17.5-79.91,46.5L21.72,938.23c-16.61,29-16.49,63.57.32,92.46,16.76,28.79,46.61,45.95,79.9,45.95h.33l1016.88-3.5c33.43-.12,63.3-17.5,79.91-46.51,16.61-29,16.49-63.57-.32-92.46L687.27,55.28c-16.76-28.79-46.61-45.95-79.9-45.95Z"></path><path class="cls-1" d="m101.94,1085.97h0c-36.64,0-69.52-18.91-87.96-50.59-18.51-31.8-18.64-69.86-.35-101.79L519.03,51.2C537.32,19.27,570.21.13,607.01,0h.37c36.64,0,69.53,18.91,87.96,50.59l511.47,878.89c18.51,31.81,18.64,69.86.35,101.79-18.29,31.93-51.18,51.07-87.98,51.2l-1017.25,3.5ZM607.38,3.11h-.35c-35.68.12-67.56,18.68-85.29,49.63L16.32,935.14c-17.73,30.96-17.6,67.84.34,98.68,17.87,30.71,49.75,49.05,85.27,49.05h.36l1016.88-3.5c35.68-.12,67.56-18.68,85.29-49.63,17.73-30.96,17.6-67.84-.34-98.68L692.65,52.16c-17.87-30.71-49.75-49.05-85.27-49.05ZM101.94,1078.2c-33.84,0-64.21-17.47-81.24-46.73-17.1-29.38-17.22-64.52-.32-94.01L525.78,55.06c16.89-29.49,47.27-47.17,81.26-47.29h.34c33.84,0,64.21,17.47,81.24,46.73l511.47,878.9c17.1,29.37,17.22,64.52.32,94.01-16.89,29.49-47.27,47.17-81.26,47.29l-1017.22,3.5ZM607.38,10.89h-.32c-32.87.11-62.24,17.21-78.57,45.72L23.07,939c-16.33,28.52-16.22,62.5.31,90.9,16.46,28.29,45.83,45.18,78.55,45.18h.33l1016.88-3.5c32.86-.11,62.24-17.21,78.57-45.72,16.34-28.52,16.22-62.5-.31-90.9L685.93,56.07c-16.46-28.29-45.83-45.18-78.55-45.18Z"></path></g></g></g></svg>