<svg xmlns="http://www.w3.org/2000/svg" id="Layer_2" data-name="Layer 2" viewBox="0 0 1131.06 1133.48"><defs><style>      .cls-1 {        fill: #231f20;      }    </style></defs><g id="Layer_1-2" data-name="Layer 1"><path class="cls-1" d="m1106.98,689.9c-14.6-8.79-33.73-7.95-54.71,1.96,16.29-14.48,31.63-32.82,44.44-54.09,18.6-30.88,29.86-63.75,31.73-92.55,1.94-29.96-6.51-52.18-23.8-62.59-13.8-8.31-31.65-7.97-51.28.44,14.91-14.18,28.92-31.48,40.66-51.44,18.27-31.08,29.2-64.06,30.76-92.87,1.63-29.97-7.06-52.11-24.45-62.34-13.07-7.69-29.63-7.8-47.82-.59,4.9-6.64,7.57-13.67,7.53-20.93-.09-17.64-15.28-33.93-42.77-45.88-26.43-11.49-61.42-17.74-98.51-17.61-28.39.1-55.43,3.99-78.39,11.02,23.26-11.77,36.06-26.88,35.97-43.07-.09-17.64-15.28-33.93-42.77-45.88-26.43-11.49-61.42-17.74-98.51-17.61-30.37.11-59,4.69-82.93,12.68,25.81-12.03,40.05-27.93,39.96-45.03-.09-17.64-15.28-33.93-42.77-45.88C622.85,6.13,587.86-.13,550.76,0c-37.1.13-72.02,6.64-98.34,18.32-27.38,12.15-42.41,28.55-42.32,46.18.07,14.89,11.03,28.8,30.97,39.97-21.44-5.59-45.77-8.72-71.31-8.63-37.1.13-72.02,6.64-98.34,18.32-27.38,12.15-42.41,28.55-42.32,46.19.08,16.54,13.6,31.86,37.96,43.56-24.25-8.09-53.37-12.63-84.27-12.52-37.1.13-72.02,6.64-98.34,18.32-27.38,12.15-42.41,28.55-42.32,46.19.05,9.87,4.99,19.29,14.01,27.79-12.62-1.93-24.01-.11-33.35,5.83-17.03,10.82-24.95,33.24-22.3,63.14,2.55,28.74,14.6,61.33,33.93,91.77,13.7,21.57,29.98,40.06,47.15,54.31-18-6.41-34.23-5.84-46.89,2.02-17.15,10.64-25.3,32.98-22.96,62.91,2.25,28.77,13.96,61.48,32.97,92.11,15.56,25.08,34.6,46.04,54.57,61.05-24.86-14.16-47.61-16.41-64.23-6.1-17.15,10.64-25.3,32.98-22.96,62.91,2.25,28.77,13.96,61.48,32.97,92.11s43.12,55.65,67.9,70.44c25.78,15.38,49.41,18,66.56,7.36,14.48-8.99,22.46-26.39,23.21-49.59,5.46,21.1,14.79,43.12,27.88,64.21,19.01,30.63,43.12,55.65,67.9,70.44,25.78,15.38,49.41,18,66.56,7.36,13.69-8.49,21.53-24.53,22.99-45.84,5.82,19.73,14.83,40.09,27.24,59.64,19.33,30.43,43.7,55.19,68.63,69.73,25.93,15.12,49.6,17.48,66.63,6.67,12.31-7.82,19.78-21.77,22.02-40.15,2.54,19.45,10.69,33.9,23.78,41.59,17.4,10.23,40.96,7.05,66.36-8.94,24.42-15.38,47.93-40.96,66.2-72.04,12.95-22.02,21.98-44.95,26.84-66.73,2.5,18.94,10.41,33.12,23.18,40.81,17.29,10.41,40.89,7.48,66.45-8.25,24.58-15.12,48.35-40.46,66.95-71.34,15.22-25.29,25.2-51.78,29.46-76.41-1.27,28.58,7.1,49.85,23.86,59.95,17.29,10.41,40.89,7.48,66.45-8.25,24.58-15.12,48.35-40.46,66.95-71.34,18.59-30.88,29.86-63.75,31.72-92.55,1.94-29.96-6.51-52.18-23.8-62.59Zm-371.75,201.5c-16.32-9.6-38.1-7.24-61.7,6.28,19.99-15.54,38.91-37.22,54.13-63.11,12.82-21.8,21.76-44.48,26.66-66.05.79,24.51,9.34,42.63,24.58,51.59,11.13,6.54,24.8,7.54,39.84,3.26-11.58,12.23-22.4,26.47-31.87,42.19-13.4,22.26-22.83,45.52-27.84,67.57-2.52-19.51-10.67-34.02-23.79-41.73Zm-162.74,169.37c-2.95-28.2-14.72-59.86-33.56-89.52-14.79-23.29-32.56-43.16-51.25-57.76,23.44,11.96,44.7,13.27,60.33,3.34,14.46-9.18,22.27-26.8,22.7-50.18,1.32,23.12,9.7,40.29,24.37,48.91,16.32,9.6,38.1,7.24,61.7-6.27-19.99,15.54-38.91,37.22-54.13,63.1-17.35,29.51-27.8,60.64-30.18,88.39Zm-191.26-121.4c-5.65-19.33-14.28-39.24-26.18-58.42-14.75-23.77-32.59-43.99-51.42-58.84,21.92,10.19,41.71,10.77,56.49,1.38,14.7-9.34,22.58-27.36,22.76-51.33,5.46,22.34,15.65,45.89,29.87,68.28,14.79,23.29,32.55,43.16,51.25,57.76-23.44-11.96-44.7-13.27-60.33-3.34-13.27,8.42-20.92,23.96-22.44,44.51Zm-183.85-86.62c-5.46-21.1-14.79-43.12-27.88-64.21-15.56-25.08-34.6-46.04-54.57-61.06,24.86,14.16,47.61,16.42,64.24,6.1,11.36-7.05,18.67-19.32,21.7-35.44,5.82,16.34,13.82,32.94,24,48.97,14.64,23.06,32.19,42.81,50.68,57.37-21.21-9.73-40.42-10.33-54.95-1.31-14.48,8.99-22.46,26.39-23.21,49.59Zm744.93-217.93c-.93-24.16-9.44-42.03-24.54-50.91-15.02-8.83-34.64-7.62-56.06,3.15,17.39-15.04,33.7-34.85,47.15-57.72,13.99-23.78,23.57-48.65,28.04-71.95.05,26.32,8.56,45.83,24.54,55.22,13.55,7.96,30.86,7.69,49.84-.32-14.63,13.84-28.41,30.61-40.05,49.94-14.43,23.96-24.28,49.06-28.92,72.58Zm-102.3,168c-22.13,13.93-42.05,17.06-56.11,8.79-14.06-8.27-21.02-27.2-19.6-53.31,1.48-27.27,11.93-58.67,29.42-88.41,17.49-29.74,39.85-54.14,62.96-68.69,22.13-13.93,42.05-17.06,56.11-8.79,14.06,8.27,21.02,27.2,19.6,53.31-1.48,27.27-11.93,58.67-29.42,88.41-17.49,29.74-39.85,54.14-62.96,68.69Zm-106.04-123.46c-14.69-8.64-33.81-7.6-54.69,2.53,16.14-14.65,31.29-33.15,43.87-54.55,14.96-25.45,24.66-52.05,28.66-76.71-.97,28.6,7.61,49.78,24.48,59.7,15.02,8.83,34.64,7.62,56.06-3.15-17.39,15.04-33.7,34.85-47.15,57.72-12.82,21.8-21.76,44.48-26.66,66.05-.79-24.51-9.34-42.63-24.58-51.59Zm-163.33,173.86c-.11,2.06-.06,3.99-.07,5.97-.08-1.83-.09-3.6-.25-5.5-2.55-28.74-14.6-61.33-33.93-91.77-15.82-24.92-35.08-45.67-55.2-60.48,25.01,13.9,47.78,15.92,64.29,5.43,11.83-7.51,19.15-20.72,21.7-38.04,2.85,18.36,10.8,32.08,23.4,39.49,14.69,8.64,33.81,7.6,54.69-2.53-16.14,14.65-31.29,33.15-43.87,54.55-18.27,31.08-29.2,64.06-30.76,92.87Zm-149.57-18.06c-18.5-29.13-30.01-60.15-32.43-87.35-2.31-26.05,4-45.2,17.76-53.95,13.77-8.74,33.79-6.31,56.38,6.86,23.59,13.75,46.78,37.37,65.27,66.49,18.5,29.13,30.01,60.15,32.43,87.35,2.31,26.05-4,45.2-17.76,53.95-13.77,8.74-33.79,6.31-56.38-6.86-23.59-13.75-46.77-37.37-65.27-66.49Zm-42.71-98.29c-5.46-22.34-15.65-45.89-29.87-68.28-13.56-21.35-29.66-39.65-46.63-53.84,22.17,10.47,42.19,11.13,57.12,1.65,14.39-9.14,22.18-26.62,22.69-49.83,5.68,21.04,15.24,42.96,28.55,63.92,15.82,24.92,35.07,45.67,55.2,60.48-25.01-13.9-47.78-15.92-64.29-5.43-14.7,9.34-22.57,27.36-22.76,51.33Zm-145.19,4.95c-18.5-29.13-30.01-60.15-32.43-87.35-2.31-26.05,4-45.2,17.77-53.95,13.77-8.74,33.79-6.31,56.38,6.86,23.59,13.75,46.78,37.37,65.27,66.49,18.5,29.13,30.01,60.15,32.43,87.35,2.31,26.05-4,45.2-17.76,53.95-13.77,8.74-33.79,6.31-56.38-6.86-23.59-13.75-46.78-37.37-65.27-66.49Zm140.83-451.03c35.5.19,68.76,6.4,93.64,17.49,23.82,10.62,36.89,24.32,36.78,38.57-.1,14.25-13.37,27.81-37.34,38.18-25.04,10.83-58.38,16.7-93.89,16.51-35.5-.19-68.76-6.4-93.64-17.49-23.82-10.62-36.89-24.32-36.78-38.57.1-14.25,13.37-27.81,37.34-38.18,25.04-10.83,58.38-16.69,93.89-16.51Zm176.79-90.77c35.5-.13,68.83,5.79,93.85,16.67,23.95,10.41,37.18,23.99,37.25,38.25.07,14.25-13.02,27.93-36.87,38.51-24.91,11.05-58.18,17.21-93.68,17.34-35.5.13-68.83-5.79-93.85-16.67-23.95-10.41-37.18-23.99-37.25-38.25-.07-14.25,13.02-27.93,36.87-38.51,24.91-11.05,58.18-17.21,93.68-17.34Zm282.09,111.49c23.82,10.62,36.89,24.32,36.78,38.57-.1,14.25-13.37,27.81-37.34,38.18-25.04,10.83-58.38,16.69-93.89,16.51-35.5-.19-68.76-6.4-93.64-17.49-23.82-10.62-36.89-24.32-36.78-38.57.1-14.25,13.37-27.81,37.34-38.18,25.04-10.83,58.38-16.69,93.89-16.51,35.5.19,68.76,6.4,93.64,17.49Zm4.51,281.54c-22.13,13.93-42.06,17.06-56.11,8.79-14.06-8.27-21.02-27.2-19.6-53.31,1.48-27.27,11.93-58.67,29.41-88.41,17.49-29.74,39.85-54.14,62.96-68.69,22.13-13.93,42.05-17.06,56.11-8.79,14.06,8.27,21.02,27.2,19.6,53.31-1.48,27.27-11.93,58.67-29.42,88.41-17.49,29.74-39.85,54.14-62.95,68.69Zm-107.94-120.92c-12.09-7.1-27.19-7.59-43.78-1.95,7.74-7.97,11.91-16.69,11.97-25.8.11-14.89-10.68-28.89-30.48-40.24,21.37,5.78,45.66,9.13,71.2,9.26,33.19.18,64.35-5.01,89.57-14.25-16.7,14.84-32.38,33.92-45.35,55.98-14.96,25.45-24.66,52.05-28.66,76.71.97-28.6-7.61-49.78-24.48-59.7Zm-77.77,218.91c-22.13,13.93-42.05,17.06-56.11,8.79-14.06-8.27-21.02-27.2-19.6-53.31,1.48-27.27,11.93-58.67,29.42-88.41,17.49-29.74,39.85-54.14,62.96-68.69,22.13-13.93,42.05-17.06,56.11-8.79,14.06,8.27,21.02,27.2,19.6,53.31-1.48,27.27-11.93,58.67-29.42,88.41-17.49,29.74-39.85,54.14-62.96,68.69Zm-84.67-51.91c-3.35-27.61-14.84-58.31-33.17-87.16-13.24-20.85-28.93-38.72-45.46-52.78,20.57,5.22,43.59,8.32,67.82,8.44,33.76.18,65.45-5.17,90.88-14.72-18.54,15.31-35.97,36-50.2,60.2-16.87,28.69-27.11,58.86-29.87,86.01Zm-191.12-113.72c-5.68-21.04-15.24-42.96-28.55-63.92-18.23-28.7-40.97-52.04-64.41-66.82,25.22,9.7,56.63,15.33,90.19,15.5,30.37.16,59.05-4.17,83.08-11.95-25.96,11.8-40.39,27.58-40.51,44.67-.07,9.24,4.11,18.13,11.95,26.27-10.92-.92-20.78,1.16-29.07,6.42-14.39,9.14-22.18,26.62-22.69,49.83Zm274.26-42.9c-25.04,10.83-58.38,16.69-93.89,16.51-34.05-.18-65.84-6.03-90.35-16.28-.24-.14-.47-.35-.71-.49-5.29-3.08-10.45-5.49-15.51-7.51-15.5-9.39-23.94-20.4-23.86-31.78.1-14.25,13.37-27.81,37.34-38.18,25.04-10.83,58.38-16.69,93.89-16.51,35.5.19,68.76,6.4,93.64,17.49,23.82,10.62,36.89,24.32,36.78,38.57-.1,14.25-13.37,27.81-37.34,38.18Zm-93.02-102.87c-30.37-.16-59.05,4.17-83.08,11.95,25.96-11.8,40.39-27.58,40.51-44.67.09-11.68-6.59-22.8-18.98-32.55,17.42,3.3,36.26,5.11,55.8,5.04,28.11-.1,54.93-3.89,77.74-10.79-20.1,11.16-31.16,25.09-31.26,40.04-.11,14.89,10.68,28.89,30.47,40.24-21.37-5.78-45.66-9.13-71.2-9.26Zm-153.27,104.27c13.77-8.74,33.79-6.31,56.38,6.86,23.59,13.75,46.78,37.37,65.27,66.49,18.5,29.13,30.01,60.15,32.43,87.35,2.31,26.05-4,45.2-17.76,53.95-13.77,8.74-33.79,6.31-56.38-6.86-23.59-13.75-46.77-37.37-65.27-66.49-18.5-29.13-30.01-60.15-32.43-87.35-2.31-26.05,4-45.2,17.76-53.95Zm-64.84-17.13c18.5,29.13,30.01,60.15,32.43,87.35,2.31,26.05-4,45.2-17.76,53.95-13.77,8.74-33.79,6.31-56.38-6.86-23.59-13.75-46.77-37.37-65.27-66.49-18.5-29.13-30.01-60.15-32.43-87.35-2.31-26.05,4-45.2,17.77-53.95,13.77-8.74,33.79-6.31,56.38,6.86,23.59,13.75,46.78,37.37,65.27,66.49Zm270.87,298.57c17.49-29.74,39.85-54.14,62.96-68.69,22.13-13.93,42.05-17.06,56.11-8.79,14.06,8.27,21.02,27.2,19.6,53.31-1.48,27.27-11.93,58.67-29.42,88.41-17.49,29.74-39.85,54.14-62.96,68.69-22.13,13.93-42.05,17.06-56.11,8.79-14.06-8.27-21.02-27.2-19.6-53.31,1.48-27.27,11.93-58.67,29.41-88.41Zm305.27-391.21c-12.19-7.17-27.45-7.61-44.2-1.81,5.66-6.97,8.8-14.43,8.86-22.19.1-14.08-9.57-27.34-27.32-38.34,20.38,4.88,43.05,7.69,66.87,7.6,34.11-.12,66.07-5.85,91.5-15.82-15.85,14.55-30.74,32.76-43.12,53.82-13.98,23.78-23.57,48.65-28.04,71.94-.05-26.31-8.57-45.82-24.54-55.21Zm-175.85-88.74c-28.78-.15-56.17,3.64-79.42,10.65,20.89-11.47,32.23-25.84,32.16-41.15-.07-15.22-11.46-29.43-32.24-40.72,22.45,6.36,48.54,9.78,75.84,9.68,28.39-.1,55.43-4,78.39-11.02-23.26,11.77-36.06,26.88-35.97,43.07.07,13.73,9.4,26.62,26.47,37.31-19.93-4.82-42-7.7-65.23-7.82Zm-188.55-93.99c-26.02.09-50.79,3.49-72.45,9.44,21.28-11.53,32.81-26.03,32.74-41.48-.07-14.9-11.03-28.8-30.97-39.97,21.44,5.59,45.77,8.73,71.32,8.63,30.37-.11,59-4.69,82.93-12.68-25.81,12.03-40.05,27.93-39.96,45.03.07,15.22,11.46,29.43,32.24,40.72-22.45-6.36-48.54-9.78-75.84-9.68Zm-140.66,64.5c.06,11.28,6.36,22,18.04,31.39-16.9-3.24-35.19-5.03-54.07-5.13-26.74-.14-52.27,3.15-74.42,9.22,15.94-10.6,24.5-23.19,24.43-36.49-.08-16.55-13.6-31.86-37.96-43.57,24.25,8.09,53.37,12.63,84.27,12.52,26.02-.09,50.79-3.49,72.45-9.44-21.28,11.53-32.81,26.03-32.74,41.49Zm-177.47,89.52c-.1,13.33,8.47,25.96,24.45,36.6-17.3-5.53-32.85-4.64-44.99,3.07-15.98,10.15-23.82,30.6-22.55,57.77-4.72-24.87-15.38-51.6-31.48-76.94-14.15-22.28-31.02-41.41-48.82-55.82,22.09,6.07,47.52,9.39,74.18,9.3,26.29-.09,51.32-3.53,73.14-9.6-15.45,10.33-23.84,22.6-23.93,35.63Zm-40.39,117.63c4.72,24.87,15.38,51.59,31.48,76.94,13.56,21.35,29.66,39.65,46.63,53.84-22.17-10.48-42.19-11.13-57.12-1.65-10.9,6.92-18.01,18.63-21.07,33.97-5.61-15.88-13.34-32.01-23.02-47.6-13.7-22.08-30.1-41.08-47.45-55.59,18.52,6.65,35.14,6.02,47.99-2.14,15.98-10.15,23.82-30.6,22.55-57.77Zm719.22,276.08c13.84-23.55,23.42-48.17,27.95-71.26,1.01,23.31,9.24,40.69,23.89,49.51,14.6,8.79,33.73,7.95,54.72-1.96-16.29,14.48-31.63,32.82-44.44,54.09-15.22,25.29-25.19,51.78-29.46,76.41,1.27-28.58-7.1-49.85-23.86-59.95-11.45-6.89-25.71-7.81-41.44-3.15,11.89-12.63,23.01-27.32,32.64-43.68Zm188.08-248.05c13.97,8.41,20.74,27.41,19.05,53.51-1.76,27.25-12.54,58.54-30.33,88.1-17.8,29.56-40.41,53.72-63.67,68.03-22.27,13.7-42.23,16.62-56.2,8.2-13.97-8.41-20.74-27.41-19.05-53.51,1.76-27.25,12.54-58.54,30.33-88.1,17.8-29.56,40.41-53.72,63.67-68.03,22.27-13.7,42.23-16.62,56.2-8.2Zm-4.23-206.16c14.06,8.27,21.02,27.2,19.6,53.31-1.48,27.27-11.93,58.67-29.42,88.41-17.49,29.74-39.85,54.14-62.96,68.69-22.13,13.93-42.05,17.06-56.11,8.79-14.06-8.27-21.02-27.2-19.6-53.31,1.48-27.27,11.93-58.67,29.42-88.41,17.49-29.74,39.85-54.14,62.96-68.69,22.13-13.93,42.05-17.06,56.11-8.79Zm-176.54-84.91c35.5-.13,68.83,5.79,93.85,16.67,23.95,10.41,37.18,23.99,37.25,38.25.07,14.25-13.02,27.93-36.87,38.51-24.91,11.05-58.18,17.21-93.68,17.34-35.5.13-68.83-5.79-93.85-16.67-23.95-10.41-37.18-23.99-37.25-38.25-.07-14.25,13.02-27.93,36.87-38.51,24.91-11.05,58.18-17.21,93.68-17.34Zm-183.71-95.54c35.5-.13,68.83,5.79,93.85,16.67,23.95,10.41,37.18,23.99,37.25,38.25.07,14.25-13.02,27.93-36.87,38.51-24.91,11.05-58.18,17.21-93.68,17.34s-68.83-5.79-93.85-16.67c-23.95-10.41-37.18-23.99-37.25-38.25-.07-14.25,13.02-27.93,36.87-38.51,24.91-11.05,58.18-17.21,93.68-17.34Zm-314.81-39.99c-.07-14.25,13.02-27.93,36.87-38.51,24.91-11.05,58.18-17.21,93.68-17.34s68.83,5.79,93.85,16.67c23.95,10.41,37.18,23.99,37.25,38.25.07,14.25-13.02,27.93-36.87,38.51-24.91,11.05-58.18,17.21-93.68,17.34-35.5.13-68.83-5.79-93.85-16.66-23.95-10.41-37.18-23.99-37.25-38.25Zm-181,95.84c-.07-14.25,13.02-27.93,36.87-38.51,24.91-11.05,58.18-17.21,93.68-17.34,35.5-.13,68.83,5.79,93.85,16.67,23.95,10.41,37.18,23.99,37.25,38.25.07,14.25-13.02,27.93-36.87,38.51-24.91,11.05-58.18,17.21-93.68,17.34s-68.83-5.79-93.85-16.67c-23.95-10.41-37.18-23.99-37.25-38.25ZM52.29,255.85c-.07-14.25,13.02-27.93,36.87-38.51,24.91-11.05,58.18-17.21,93.68-17.34,35.5-.13,68.83,5.79,93.85,16.67,23.95,10.41,37.18,23.99,37.25,38.25.07,14.25-13.02,27.93-36.87,38.51-24.91,11.05-58.18,17.21-93.68,17.34-35.5.13-68.83-5.79-93.85-16.67-23.95-10.41-37.18-23.99-37.25-38.25Zm-9.53,183.28c-18.5-29.13-30.01-60.15-32.43-87.35-2.31-26.05,4-45.2,17.77-53.95,13.77-8.74,33.79-6.31,56.38,6.86,23.59,13.75,46.78,37.37,65.27,66.49,18.5,29.13,30.01,60.15,32.43,87.35,2.31,26.05-4,45.2-17.76,53.95-13.77,8.74-33.79,6.31-56.38-6.86-23.59-13.75-46.78-37.37-65.27-66.49Zm10.33,211.44c-18.19-29.32-29.39-60.46-31.52-87.68-2.04-26.07,4.47-45.16,18.32-53.76,13.86-8.6,33.85-5.95,56.31,7.45,23.45,14,46.38,37.85,64.58,67.17,18.19,29.32,29.39,60.46,31.52,87.68,2.04,26.07-4.47,45.16-18.32,53.76-13.86,8.6-33.85,5.95-56.31-7.45-23.45-14-46.39-37.85-64.58-67.17Zm121.24,284.59c-13.86,8.6-33.85,5.95-56.31-7.45-23.45-14-46.38-37.85-64.58-67.17-18.19-29.32-29.39-60.46-31.52-87.68-2.04-26.07,4.47-45.16,18.32-53.76,13.86-8.6,33.85-5.95,56.31,7.45,23.45,14,46.38,37.85,64.58,67.17,18.19,29.32,29.39,60.46,31.52,87.68,2.04,26.07-4.47,45.16-18.32,53.76Zm185.55,92.42c-13.86,8.6-33.85,5.95-56.31-7.45-23.45-14-46.38-37.85-64.58-67.17-18.19-29.32-29.39-60.46-31.52-87.68-2.04-26.07,4.47-45.16,18.32-53.76,13.86-8.6,33.85-5.95,56.31,7.45,23.45,14,46.38,37.85,64.58,67.17,18.19,29.32,29.39,60.46,31.52,87.68,2.04,26.07-4.47,45.16-18.32,53.76Zm185.41,90.24c-13.77,8.74-33.79,6.31-56.38-6.86-23.59-13.75-46.78-37.37-65.27-66.49-18.5-29.13-30.01-60.15-32.43-87.35-2.31-26.05,4-45.2,17.77-53.95,13.77-8.74,33.79-6.31,56.38,6.86,23.59,13.75,46.78,37.37,65.27,66.49,18.5,29.13,30.01,60.15,32.43,87.35,2.31,26.05-4,45.2-17.76,53.95Zm175.15-76.21c-17.49,29.74-39.85,54.14-62.96,68.69-22.13,13.93-42.05,17.05-56.11,8.79-14.06-8.27-21.02-27.2-19.6-53.31,1.48-27.27,11.93-58.67,29.42-88.41,17.49-29.74,39.85-54.14,62.96-68.69,22.13-13.93,42.05-17.06,56.11-8.79,14.06,8.27,21.02,27.2,19.6,53.31-1.48,27.27-11.93,58.67-29.42,88.41Zm183.47-105.6c-17.8,29.56-40.41,53.72-63.67,68.03-22.27,13.7-42.23,16.62-56.2,8.21-13.97-8.41-20.74-27.42-19.05-53.51,1.76-27.25,12.54-58.54,30.33-88.1,17.8-29.56,40.41-53.72,63.67-68.03,22.27-13.7,42.23-16.62,56.2-8.21s20.74,27.41,19.05,53.51c-1.76,27.25-12.54,58.54-30.33,88.1Zm186.72-96.06c-17.8,29.56-40.41,53.72-63.67,68.03-22.27,13.7-42.23,16.62-56.2,8.21-13.97-8.41-20.74-27.42-19.05-53.51,1.76-27.25,12.54-58.54,30.33-88.1,17.8-29.56,40.41-53.72,63.67-68.03,22.27-13.7,42.23-16.62,56.2-8.21,13.97,8.41,20.74,27.41,19.05,53.51-1.76,27.25-12.54,58.54-30.33,88.1Z"></path></g></svg>